<?xml version="1.0" encoding="utf-8"?>
<!-- Generator: Adobe Illustrator 23.0.1, SVG Export Plug-In . SVG Version: 6.00 Build 0)  -->
<svg version="1.1" id="Layer_1" xmlns="http://www.w3.org/2000/svg" xmlns:xlink="http://www.w3.org/1999/xlink" x="0px" y="0px"
	 viewBox="0 0 217 143" style="enable-background:new 0 0 217 143;" xml:space="preserve">
<style type="text/css">
	.st0{fill:#FFFFFF;}
	.st1{fill:#715946;}
</style>
<g>
	<path class="st0" d="M108.45,4.59c-2.03,0-3.41,0.32-3.42,0.32L15.97,28.65c-9.33,3.11-9.62,12.18-9.62,12.28v60.78
		c0.42,9.4,9.63,12.86,9.72,12.89l87.79,23.42c1.37,0.3,2.91,0.46,4.52,0.46c3.13,0,5.49-0.61,5.51-0.62l87.27-23.14
		c9.97-3.52,9.64-12.13,9.63-12.5l0-61.32c0.13-7.89-7.72-11.63-8.5-11.97L113.27,5.21C111.74,4.8,110.12,4.59,108.45,4.59z"/>
	<g>
		<g>
			<path class="st1" d="M92.56,40.91c0,0,5.94-0.42,9.04-3.57c0,0-5.31-3.78-10.88-3.47c0,0-4.89,0.26-4.94,3.78
				C85.78,37.65,86.2,41.44,92.56,40.91z"/>
			<path class="st1" d="M121.37,106.34c0-0.3-0.11-0.55-0.32-0.74c-0.21-0.19-0.48-0.29-0.81-0.29c-0.12,0-0.21,0.02-0.25,0.06
				c-0.05,0.04-0.07,0.11-0.07,0.22l0,0.1v1.26c0,0.1,0.01,0.16,0.04,0.19c0.03,0.03,0.09,0.04,0.18,0.04h0.35
				c0.27,0,0.48-0.07,0.64-0.22C121.29,106.81,121.37,106.6,121.37,106.34z"/>
			<path class="st1" d="M108.38,38.96c1.4-0.54,2.69-1.15,3.69-1.84c-1.33-0.83-2.71-1.7-3.85-2.41c-1.11,0.69-2.44,1.52-3.74,2.34
				C105.53,37.77,106.9,38.41,108.38,38.96z"/>
			<path class="st1" d="M90.72,88.7c0,0-4.89,0.26-4.94,3.79c0,0,0.42,3.78,6.78,3.26c0,0,5.94-0.42,9.04-3.57
				C101.6,92.17,96.29,88.39,90.72,88.7z"/>
			<path class="st1" d="M130.64,37.65c-0.05-3.52-4.94-3.78-4.94-3.78c-5.57-0.31-10.88,3.47-10.88,3.47
				c3.1,3.15,9.04,3.57,9.04,3.57C130.22,41.44,130.64,37.65,130.64,37.65z"/>
			<path class="st1" d="M115.41,108.29c-0.17-0.15-0.39-0.36-0.66-0.64c-0.27-0.28-0.49-0.51-0.65-0.7
				c-0.13-0.15-0.24-0.23-0.32-0.23c-0.14,0-0.28,0.09-0.41,0.25c-0.14,0.17-0.21,0.38-0.21,0.62c0,0.3,0.12,0.59,0.36,0.87
				c0.33,0.38,0.75,0.57,1.26,0.57c0.42,0,0.78-0.13,1.06-0.38c-0.07-0.06-0.11-0.1-0.13-0.11L115.41,108.29z"/>
			<path class="st1" d="M62.81,106.34c0-0.3-0.11-0.55-0.32-0.74c-0.21-0.19-0.48-0.29-0.81-0.29c-0.12,0-0.21,0.02-0.25,0.06
				c-0.05,0.04-0.07,0.11-0.07,0.22l0,0.1v1.26c0,0.1,0.01,0.16,0.04,0.19c0.03,0.03,0.09,0.04,0.18,0.04h0.35
				c0.27,0,0.48-0.07,0.64-0.22C62.73,106.81,62.81,106.6,62.81,106.34z"/>
			<path class="st1" d="M99.73,107.25l-0.49-1.23l-0.02-0.06c-0.03-0.07-0.05-0.1-0.08-0.1c-0.01,0-0.03,0.02-0.05,0.06l-0.6,1.34
				c-0.03,0.06-0.04,0.1-0.04,0.12c0,0.05,0.05,0.08,0.14,0.08l0.08,0h0.94c0.1,0,0.15-0.03,0.15-0.08c0-0.01-0.01-0.04-0.01-0.07
				L99.73,107.25z"/>
			<path class="st1" d="M73.82,105.26c-0.48,0-0.86,0.16-1.14,0.48c-0.28,0.32-0.42,0.76-0.42,1.3c0,0.62,0.18,1.15,0.54,1.58
				c0.36,0.43,0.8,0.64,1.33,0.64c0.48,0,0.88-0.17,1.19-0.52c0.31-0.35,0.47-0.79,0.47-1.33c0-0.62-0.19-1.13-0.56-1.54
				C74.85,105.46,74.38,105.26,73.82,105.26z"/>
			<path class="st1" d="M36.73,52.12c0-1.18-0.41-2.14-1.24-2.9c-0.83-0.76-1.88-1.13-3.15-1.13c-0.48,0-0.81,0.08-0.99,0.24
				c-0.18,0.16-0.27,0.44-0.27,0.86l0.01,0.4v4.93c0,0.38,0.05,0.62,0.15,0.72c0.1,0.1,0.34,0.15,0.71,0.15h1.37
				c1.06,0,1.89-0.29,2.5-0.87C36.43,53.93,36.73,53.13,36.73,52.12z"/>
			<path class="st1" d="M104.48,91.88c1.05,0.73,2.42,1.36,3.9,1.92c1.4-0.54,2.69-1.15,3.69-1.84c-1.33-0.83-2.71-1.7-3.85-2.41
				C107.11,90.24,105.77,91.07,104.48,91.88z"/>
			<path class="st1" d="M79.08,106.34c0-0.3-0.11-0.55-0.32-0.74c-0.21-0.19-0.48-0.29-0.81-0.29c-0.12,0-0.21,0.02-0.25,0.06
				c-0.05,0.04-0.07,0.11-0.07,0.22l0,0.1v1.26c0,0.1,0.01,0.16,0.04,0.19c0.03,0.03,0.09,0.04,0.18,0.04h0.35
				c0.27,0,0.48-0.07,0.64-0.22C79.01,106.81,79.08,106.6,79.08,106.34z"/>
			<path class="st1" d="M95.58,106.34c0-0.3-0.11-0.55-0.32-0.74c-0.21-0.19-0.48-0.29-0.81-0.29c-0.12,0-0.21,0.02-0.25,0.06
				c-0.05,0.04-0.07,0.11-0.07,0.22l0,0.1v1.26c0,0.1,0.01,0.16,0.04,0.19c0.03,0.03,0.09,0.04,0.18,0.04h0.35
				c0.27,0,0.48-0.07,0.64-0.22C95.5,106.81,95.58,106.6,95.58,106.34z"/>
			<path class="st1" d="M135.43,105.62c-0.32-0.23-0.71-0.34-1.17-0.34c-0.33,0-0.53,0.04-0.62,0.1c-0.05,0.04-0.08,0.13-0.08,0.25
				v3.19c0,0.13,0.06,0.21,0.19,0.26c0.11,0.04,0.25,0.08,0.42,0.11c0.17,0.03,0.31,0.05,0.43,0.05c0.35,0,0.67-0.09,0.95-0.27
				c0.48-0.3,0.72-0.8,0.72-1.51c0-0.39-0.07-0.75-0.22-1.07C135.9,106.06,135.69,105.8,135.43,105.62z"/>
			<path class="st1" d="M125.7,88.7c-5.57-0.31-10.88,3.47-10.88,3.47c3.1,3.15,9.04,3.57,9.04,3.57c6.36,0.53,6.78-3.26,6.78-3.26
				C130.59,88.96,125.7,88.7,125.7,88.7z"/>
			<path class="st1" d="M138.1,62.39c1.87-1.16,2.8-3.14,2.8-5.92c0-1.51-0.29-2.91-0.88-4.18c-0.59-1.27-1.39-2.27-2.41-3
				c-1.25-0.89-2.77-1.34-4.56-1.34c-1.27,0-2.08,0.14-2.43,0.41c-0.21,0.16-0.31,0.49-0.31,0.99v12.46c0,0.49,0.24,0.83,0.74,1.02
				c0.43,0.16,0.97,0.3,1.64,0.42c0.67,0.12,1.23,0.18,1.69,0.18C135.75,63.43,137,63.08,138.1,62.39z"/>
			<path class="st1" d="M130.78,74.61c-0.47-0.45-1.03-0.67-1.68-0.67c-0.69,0-1.23,0.25-1.62,0.77c-0.39,0.51-0.58,1.22-0.58,2.13
				c0,1.08,0.24,1.95,0.73,2.63c0.49,0.67,1.12,1.01,1.9,1.01c0.7,0,1.26-0.28,1.69-0.84c0.42-0.56,0.63-1.3,0.63-2.24
				c0-0.54-0.1-1.06-0.29-1.58C131.37,75.32,131.11,74.92,130.78,74.61z"/>
			<path class="st1" d="M207.7,41.24c-0.44-7.01-5.98-9.34-5.98-9.34L114.15,8.26c-5.25-1.75-9.05-0.15-9.05-0.15L21.32,30.59
				c-9.05,1.17-11.97,9.34-11.97,9.34v62.03c0.44,6.86,8.76,10.51,8.76,10.51l84.51,22.48c3.79,1.46,11.09,0.15,11.09,0.15
				l85.09-22.92c8.76-2.77,9.05-10.51,9.05-10.51L207.7,41.24z M132.88,36.96h32.46c0.8-0.41,1.32-1.05,1.32-1.05
				c0.59,1.12,2.3,1.61,2.3,1.61s-1.71,0.47-2.3,1.6c0,0-0.53-0.65-1.34-1.06h-32.44V36.96z M148.67,79.98l0.02,0.64
				c0,0.1-0.03,0.14-0.1,0.14c-0.06,0-0.12-0.04-0.19-0.11l-4.68-5.2c-0.08-0.09-0.14-0.13-0.17-0.13c-0.08,0-0.12,0.08-0.12,0.23
				l-0.01,0.15v1.99c0,1.06,0.05,1.78,0.16,2.14c0.11,0.38,0.45,0.6,1,0.65c0.1,0.01,0.15,0.06,0.15,0.13c0,0.1-0.05,0.16-0.16,0.16
				c-0.04,0-0.11-0.01-0.2-0.02c-0.29-0.05-0.61-0.07-0.96-0.07c-0.35,0-0.66,0.02-0.93,0.07c-0.12,0.02-0.21,0.03-0.26,0.03
				c-0.09,0-0.14-0.04-0.14-0.13c0-0.07,0.05-0.12,0.15-0.15c0.25-0.07,0.43-0.22,0.55-0.44c0.12-0.22,0.17-0.55,0.17-0.97
				l0.04-1.22v-2.23c0-1.05-0.39-1.61-1.17-1.66c-0.11-0.01-0.16-0.05-0.16-0.13c0-0.1,0.06-0.15,0.17-0.15l0.36,0.01l0.22-0.01
				c0.27,0,0.56-0.01,0.86-0.04c0.11-0.01,0.21-0.02,0.28-0.02c0.11,0,0.19,0.02,0.25,0.07c0.06,0.05,0.19,0.19,0.39,0.42l0.35,0.42
				c0.14,0.17,0.22,0.26,0.25,0.3l2.72,3.06l0.17,0.2c0.23,0.26,0.39,0.39,0.47,0.39c0.07,0,0.11-0.1,0.12-0.31
				c0.03-0.76,0.05-1.48,0.05-2.16c0-0.81-0.08-1.35-0.24-1.63c-0.16-0.29-0.48-0.44-0.96-0.48c-0.11-0.01-0.17-0.05-0.17-0.12
				c0-0.09,0.05-0.14,0.15-0.14c0.12,0,0.32,0.02,0.6,0.05c0.18,0.02,0.33,0.03,0.44,0.03c0.24,0,0.61-0.03,1.13-0.1
				c0.07-0.01,0.12-0.01,0.15-0.01c0.11,0,0.16,0.05,0.16,0.15c0,0.09-0.05,0.14-0.16,0.16c-0.44,0.08-0.66,0.48-0.66,1.18v0.25
				l-0.07,3.21l-0.02,0.44l-0.01,0.57L148.67,79.98z M133,64.05c-1.08-0.07-2.02-0.11-2.82-0.11c-0.86,0-1.61,0.04-2.25,0.13
				c-0.29,0.04-0.52,0.07-0.69,0.07c-0.28,0.01-0.42-0.07-0.42-0.27c0-0.13,0.11-0.22,0.34-0.27c0.55-0.11,0.9-0.32,1.06-0.61
				c0.16-0.29,0.24-0.89,0.24-1.78V50.31c0-0.82-0.14-1.42-0.41-1.8c-0.27-0.38-0.73-0.6-1.37-0.67c-0.27-0.02-0.4-0.11-0.4-0.25
				c0-0.16,0.11-0.24,0.32-0.24l0.96,0.05c0.1,0.01,0.38,0.01,0.85,0.01c0.82,0,1.45-0.02,1.9-0.06l1.13-0.11
				c0.48-0.04,1.02-0.06,1.6-0.06c3.31,0,5.79,0.83,7.44,2.49c1.51,1.52,2.27,3.46,2.27,5.82c0,1.52-0.33,2.93-0.99,4.2
				c-0.66,1.27-1.58,2.28-2.76,3.01c-1.49,0.93-3.11,1.39-4.87,1.39C133.9,64.12,133.53,64.1,133,64.05z M133.06,76.95
				c0,1.1-0.34,2.03-1.02,2.8c-0.66,0.75-1.57,1.12-2.74,1.12c-1.11,0-2-0.32-2.67-0.97c-0.67-0.65-1-1.52-1-2.61
				c0-0.47,0.08-0.93,0.25-1.39c0.17-0.46,0.4-0.85,0.68-1.16c0.33-0.37,0.76-0.65,1.27-0.86c0.51-0.21,1.06-0.31,1.63-0.31
				c1.07,0,1.93,0.31,2.59,0.93C132.73,75.12,133.06,75.93,133.06,76.95z M148.54,63.9c-1.41,0-2.41,0.05-2.99,0.15
				c-0.31,0.06-0.52,0.08-0.63,0.08c-0.26,0-0.39-0.09-0.39-0.26c0-0.13,0.11-0.23,0.32-0.28l0.46-0.13
				c0.58-0.16,0.87-0.73,0.87-1.7l0.01-0.79V50.72c0-1.16-0.13-1.93-0.38-2.33c-0.25-0.4-0.75-0.6-1.48-0.6
				c-0.23,0-0.35-0.07-0.35-0.22c0-0.22,0.18-0.33,0.54-0.33c0.2,0,0.47,0.02,0.81,0.06c1.16,0.13,2.54,0.19,4.16,0.19
				c0.98,0,1.86-0.01,2.61-0.05l1.72-0.08c0.48-0.02,0.77-0.03,0.87-0.05c0.22-0.03,0.38-0.05,0.48-0.05c0.27,0,0.4,0.12,0.4,0.35
				c0,0.07-0.01,0.17-0.04,0.28c-0.03,0.11-0.06,0.43-0.1,0.97l-0.05,0.71c-0.04,0.47-0.08,0.76-0.12,0.87
				c-0.04,0.12-0.13,0.18-0.27,0.19c-0.16,0.01-0.24-0.11-0.24-0.36v-0.31c0-0.26-0.05-0.51-0.14-0.74
				c-0.15-0.36-0.46-0.61-0.93-0.73c-0.47-0.12-1.32-0.18-2.57-0.18h-1.9c-0.5,0-0.82,0.06-0.97,0.19c-0.15,0.13-0.22,0.4-0.22,0.83
				v4.88c0,0.37,0.03,0.6,0.1,0.67c0.07,0.08,0.28,0.12,0.62,0.12h1.86c0.85,0,1.52-0.05,2.01-0.15c0.44-0.09,0.72-0.2,0.85-0.35
				c0.13-0.15,0.25-0.48,0.35-1.02c0.04-0.2,0.15-0.3,0.31-0.29c0.16,0.01,0.23,0.12,0.23,0.33c0,0.06,0,0.14-0.01,0.27
				c-0.07,0.78-0.11,1.49-0.11,2.14c0,0.49,0.02,0.98,0.07,1.46c0.02,0.16,0.02,0.28,0.02,0.35c0,0.2-0.08,0.3-0.23,0.3
				c-0.17,0-0.28-0.09-0.31-0.27l-0.07-0.34c-0.1-0.54-0.29-0.91-0.58-1.1c-0.29-0.19-0.78-0.29-1.47-0.29h-2.67
				c-0.39,0-0.66,0.04-0.79,0.12c-0.13,0.08-0.2,0.24-0.2,0.48l0.01,0.4v4.46c0,0.69,0.12,1.12,0.37,1.29
				c0.24,0.17,0.87,0.26,1.87,0.26c3.17,0,5.2-0.71,6.11-2.14c0.09-0.14,0.18-0.21,0.27-0.22c0.15-0.01,0.22,0.1,0.22,0.31
				c0,0.52-0.29,1.15-0.88,1.87c-0.71,0.87-1.61,1.3-2.69,1.3c-0.23,0-0.55-0.01-0.94-0.05C150.83,63.97,149.55,63.9,148.54,63.9z
				 M84.62,35.87c0,0,1.47-4.31,8.88-3.31c0,0,4.47,0.63,8.88,3.68c0,0,0.74,0.41,1.63-0.16l3.41-1.85
				c-1.05-0.65-1.75-1.09-1.75-1.09l2.36,0.58l0.17,0.09l0.17-0.09l2.37-0.58c0,0-0.7,0.44-1.76,1.09l3.41,1.85
				c0.99,0.67,1.63,0.16,1.63,0.16c4.42-3.05,8.88-3.68,8.88-3.68c7.41-1,8.88,3.31,8.88,3.31c1.73,4.78-3.83,5.94-3.83,5.94
				c-6.99,1.26-11.88-2.16-11.88-2.16c-0.73-0.46-1.81-1.14-3-1.89c-0.21,0.1-1.63,0.79-3.62,1.59c4.48,1.5,9.43,2.26,9.43,2.26
				c-2.83,0.63-7.14-0.59-10.51-1.84c-3.4,1.28-7.87,2.58-10.78,1.93c0,0,5.15-0.78,9.69-2.35c-1.99-0.79-3.48-1.5-3.84-1.67
				c-1.24,0.78-2.37,1.49-3.12,1.97c0,0-4.89,3.42-11.88,2.16C88.46,41.81,82.89,40.65,84.62,35.87z M111.66,74.05L111.35,74
				c-0.13-0.02-0.2-0.07-0.2-0.16c0-0.11,0.05-0.16,0.15-0.16c0.03,0,0.08,0,0.15,0.01c0.05,0,0.12,0.01,0.2,0.02l0.22,0.01
				c0.21,0.02,0.37,0.03,0.47,0.03c0.17,0,0.43-0.02,0.79-0.06c0.27-0.03,0.54-0.04,0.82-0.04c0.21,0,0.31,0.05,0.31,0.15
				c0,0.08-0.07,0.13-0.22,0.14c-0.35,0.02-0.52,0.26-0.52,0.71v4.46c0,0.64,0.08,1,0.23,1.08c0.09,0.04,0.25,0.07,0.5,0.07
				c1.16,0,1.99-0.34,2.47-1.03c0.15-0.21,0.24-0.31,0.28-0.31c0.06,0,0.09,0.07,0.09,0.21c0,0.44-0.14,0.82-0.43,1.17
				c-0.25,0.3-0.59,0.45-1.02,0.45c-0.09,0-0.25-0.01-0.49-0.03c-0.06,0-0.27-0.01-0.62-0.04l-0.56-0.03
				c-0.19-0.01-0.4-0.01-0.64-0.01c-0.4,0-0.83,0.03-1.29,0.08c-0.14,0.02-0.23,0.02-0.28,0.02c-0.1,0-0.15-0.04-0.15-0.14
				c0-0.06,0.04-0.11,0.13-0.13c0.22-0.06,0.37-0.18,0.45-0.36c0.08-0.18,0.13-0.46,0.13-0.87v-4.29
				C112.34,74.44,112.11,74.13,111.66,74.05z M112.09,52.06l-0.12-0.13c-0.05-0.05-0.1-0.07-0.17-0.07c-0.15,0-0.23,0.18-0.23,0.55
				v8.22l-0.01,0.51l0.04,0.86c0.06,0.53,0.19,0.9,0.41,1.1c0.22,0.2,0.65,0.35,1.28,0.45c0.27,0.03,0.4,0.13,0.4,0.31
				c0,0.16-0.08,0.24-0.25,0.24c-0.11,0-0.23-0.01-0.36-0.02c-0.09-0.01-0.44-0.04-1.05-0.07l-1.23-0.06l-0.58,0.02
				c-0.31,0-0.61,0.02-0.9,0.06c-0.21,0.03-0.36,0.04-0.45,0.04c-0.21,0-0.32-0.07-0.34-0.23c-0.01-0.12,0.1-0.22,0.34-0.29
				c0.68-0.23,1.13-0.55,1.37-0.94c0.24-0.39,0.36-1.02,0.36-1.9v-8.24c0-1.4-0.22-2.5-0.67-3.3c-0.44-0.81-1.08-1.26-1.92-1.38
				c-0.22-0.03-0.33-0.12-0.33-0.27c0-0.15,0.09-0.22,0.27-0.22c0.04,0,0.1,0,0.19,0.01l0.5,0.01l0.81,0.03l0.19-0.01
				c0.2-0.01,0.34-0.01,0.45-0.01c0.2,0,0.4,0.12,0.61,0.35l11.14,12.61c0.18,0.2,0.29,0.3,0.34,0.29c0.08-0.01,0.12-0.09,0.13-0.23
				v-5.99l0.01-1.64l-0.15-2.78c-0.08-0.69-0.28-1.17-0.6-1.46c-0.32-0.29-0.89-0.5-1.73-0.64c-0.23-0.04-0.35-0.14-0.35-0.3
				c0-0.15,0.12-0.23,0.35-0.23c0.11,0,0.27,0.01,0.51,0.03c0.56,0.06,1.3,0.09,2.24,0.09c0.5,0,0.9-0.02,1.2-0.07
				c0.26-0.05,0.46-0.07,0.59-0.07c0.21,0,0.32,0.08,0.34,0.25c0.01,0.11-0.07,0.18-0.24,0.23c-0.49,0.12-0.82,0.32-0.97,0.6
				c-0.16,0.28-0.24,0.81-0.24,1.59v1.31l-0.03,0.8V62.2c0,0.91-0.02,1.47-0.06,1.66c-0.04,0.2-0.15,0.29-0.34,0.29
				c-0.12-0.01-0.21-0.04-0.28-0.11l-0.27-0.32L112.09,52.06z M99.95,79.84c0.06,0.39,0.4,0.6,1.03,0.63
				c0.11,0.01,0.16,0.06,0.16,0.15c0,0.1-0.08,0.15-0.23,0.15c-0.08,0-0.17,0-0.27-0.01l-0.73-0.07c-0.13-0.01-0.33-0.02-0.6-0.02
				c-0.64,0-1.07,0.02-1.28,0.06c-0.14,0.03-0.24,0.04-0.31,0.04c-0.08,0-0.12-0.06-0.12-0.17c0-0.06,0.05-0.1,0.14-0.12
				c0.38-0.06,0.64-0.18,0.78-0.37c0.14-0.19,0.2-0.51,0.2-0.97v-0.98c0-0.23-0.08-0.47-0.23-0.71c-0.18-0.3-0.38-0.65-0.59-1.06
				l-0.78-1.47c-0.31-0.59-0.68-0.9-1.1-0.94c-0.13-0.01-0.19-0.06-0.19-0.15c0-0.11,0.05-0.16,0.14-0.16c0.09,0,0.22,0.01,0.4,0.03
				c0.37,0.04,0.7,0.06,1.01,0.06c0.28,0,0.56-0.01,0.85-0.04c0.21-0.02,0.35-0.03,0.43-0.03c0.14,0,0.22,0.04,0.22,0.13
				c0,0.07-0.06,0.12-0.18,0.15c-0.26,0.05-0.4,0.17-0.4,0.35c0,0.14,0.12,0.46,0.38,0.94l0.4,0.78c0.16,0.31,0.27,0.51,0.3,0.6
				c0.12,0.24,0.23,0.36,0.34,0.36c0.11,0,0.25-0.17,0.43-0.52c0.04-0.09,0.16-0.3,0.34-0.63c0.38-0.68,0.56-1.1,0.56-1.27
				c0-0.14-0.08-0.28-0.25-0.41c-0.17-0.13-0.36-0.2-0.58-0.22c-0.11-0.01-0.16-0.06-0.16-0.13c0-0.11,0.04-0.16,0.13-0.16
				c0.1,0,0.18,0.01,0.26,0.01l0.34,0.05c0.13,0.02,0.31,0.03,0.52,0.03c0.11,0,0.24,0,0.38-0.01l0.43-0.03
				c0.11-0.01,0.25-0.01,0.41-0.01c0.09,0,0.14,0.04,0.14,0.12c0,0.07-0.06,0.12-0.18,0.15c-0.26,0.06-0.47,0.18-0.62,0.34
				c-0.16,0.17-0.36,0.49-0.6,0.96c-0.44,0.84-0.83,1.54-1.2,2.12c-0.07,0.1-0.12,0.19-0.13,0.26c-0.02,0.07-0.02,0.18-0.02,0.35
				v1.52L99.95,79.84z M99.19,63.9c-1.41,0-2.41,0.05-2.99,0.15c-0.31,0.06-0.52,0.08-0.63,0.08c-0.26,0-0.39-0.09-0.39-0.26
				c0-0.13,0.1-0.23,0.32-0.28l0.46-0.13c0.58-0.16,0.87-0.73,0.87-1.7l0.01-0.79V50.72c0-1.16-0.13-1.93-0.38-2.33
				c-0.25-0.4-0.75-0.6-1.48-0.6c-0.24,0-0.35-0.07-0.35-0.22c0-0.22,0.18-0.33,0.55-0.33c0.2,0,0.47,0.02,0.81,0.06
				c1.16,0.13,2.54,0.19,4.16,0.19c0.98,0,1.86-0.01,2.62-0.05l1.72-0.08c0.48-0.02,0.77-0.03,0.87-0.05
				c0.22-0.03,0.38-0.05,0.48-0.05c0.27,0,0.4,0.12,0.4,0.35c0,0.07-0.01,0.17-0.04,0.28c-0.02,0.11-0.06,0.43-0.1,0.97l-0.05,0.71
				c-0.04,0.47-0.08,0.76-0.12,0.87c-0.04,0.12-0.13,0.18-0.27,0.19c-0.16,0.01-0.23-0.11-0.23-0.36v-0.31
				c0-0.26-0.05-0.51-0.14-0.74c-0.15-0.36-0.46-0.61-0.93-0.73c-0.47-0.12-1.32-0.18-2.57-0.18h-1.9c-0.5,0-0.82,0.06-0.97,0.19
				c-0.15,0.13-0.22,0.4-0.22,0.83v4.88c0,0.37,0.04,0.6,0.1,0.67c0.07,0.08,0.28,0.12,0.62,0.12h1.86c0.85,0,1.52-0.05,2.01-0.15
				c0.44-0.09,0.72-0.2,0.85-0.35c0.13-0.15,0.25-0.48,0.35-1.02c0.04-0.2,0.15-0.3,0.31-0.29c0.16,0.01,0.24,0.12,0.24,0.33
				c0,0.06,0,0.14-0.01,0.27c-0.07,0.78-0.11,1.49-0.11,2.14c0,0.49,0.02,0.98,0.07,1.46c0.01,0.16,0.02,0.28,0.02,0.35
				c0,0.2-0.08,0.3-0.23,0.3c-0.17,0-0.28-0.09-0.31-0.27l-0.07-0.34c-0.1-0.54-0.29-0.91-0.58-1.1c-0.29-0.19-0.78-0.29-1.47-0.29
				h-2.67c-0.39,0-0.66,0.04-0.79,0.12c-0.13,0.08-0.2,0.24-0.2,0.48l0.01,0.4v4.46c0,0.69,0.12,1.12,0.37,1.29
				c0.25,0.17,0.87,0.26,1.87,0.26c3.17,0,5.2-0.71,6.1-2.14c0.09-0.14,0.18-0.21,0.27-0.22c0.15-0.01,0.22,0.1,0.22,0.31
				c0,0.52-0.29,1.15-0.88,1.87c-0.71,0.87-1.61,1.3-2.69,1.3c-0.23,0-0.55-0.01-0.94-0.05C101.47,63.97,100.2,63.9,99.19,63.9z
				 M82.85,74.23c-0.13-0.14-0.38-0.23-0.78-0.29c-0.09-0.01-0.14-0.06-0.14-0.15c0-0.08,0.06-0.12,0.17-0.12
				c0.02,0,0.08,0,0.15,0.01c0.06,0,0.15,0.01,0.25,0.01l0.52,0.02l1.95,0.02c1.12,0,1.81-0.01,2.07-0.05c0.03,0,0.05,0,0.07,0
				c0.1,0,0.15,0.06,0.15,0.17c0,0.08,0.01,0.22,0.03,0.42c0.03,0.3,0.04,0.51,0.04,0.64c0,0.26-0.07,0.39-0.2,0.4
				c-0.07,0-0.1-0.07-0.1-0.23c0-0.34-0.12-0.59-0.37-0.74c-0.25-0.15-0.65-0.23-1.21-0.23h-0.63l-0.35,0.04
				c-0.17,0.06-0.26,0.23-0.26,0.52l-0.01,0.21V76c0,0.32,0.02,0.52,0.07,0.61c0.05,0.09,0.16,0.13,0.34,0.13l0.15-0.01l0.23,0h0.44
				c0.34,0,0.6-0.19,0.79-0.56l0.12-0.25c0.03-0.06,0.08-0.09,0.15-0.1c0.08,0,0.11,0.04,0.11,0.14c0,0.03-0.01,0.1-0.01,0.23
				c-0.01,0.09-0.01,0.16-0.01,0.23c0,0.11,0.02,0.37,0.05,0.77c0.02,0.26,0.03,0.49,0.03,0.69l0.01,0.26c0,0.05-0.01,0.08-0.01,0.1
				c-0.01,0.02-0.04,0.03-0.08,0.04c-0.09,0.01-0.14-0.06-0.16-0.2c-0.04-0.29-0.15-0.51-0.31-0.66c-0.09-0.08-0.2-0.14-0.33-0.16
				c-0.13-0.02-0.37-0.04-0.72-0.04h-0.35c-0.17,0-0.28,0.03-0.34,0.07c-0.06,0.05-0.1,0.15-0.12,0.3
				c-0.02,0.17-0.03,0.44-0.03,0.81v0.46c0,0.48,0.04,0.83,0.11,1.04c0.06,0.15,0.13,0.26,0.21,0.31c0.08,0.05,0.2,0.08,0.37,0.08
				c1.39,0,2.3-0.42,2.73-1.27c0.02-0.04,0.04-0.06,0.06-0.07c0.03-0.01,0.07,0,0.09,0.03c0.03,0.03,0.04,0.07,0.04,0.11
				c0,0.34-0.09,0.66-0.27,0.98c-0.15,0.27-0.34,0.46-0.57,0.58c-0.23,0.12-0.53,0.17-0.9,0.17c-0.22,0-0.46-0.01-0.73-0.04
				l-0.6-0.06c-0.22-0.02-0.52-0.03-0.89-0.03c-0.25,0-0.63,0.01-1.14,0.05c-0.14,0.01-0.24,0.01-0.3,0.01
				c-0.08,0-0.13-0.04-0.13-0.12c0-0.06,0.03-0.11,0.11-0.14c0.2-0.07,0.33-0.15,0.4-0.24c0.07-0.08,0.13-0.23,0.17-0.45
				c0.04-0.18,0.06-0.43,0.06-0.74v-4.07C83.04,74.62,82.98,74.36,82.85,74.23z M85.57,63.9c-0.99,0-1.83,0.05-2.5,0.15
				c-0.28,0.04-0.51,0.06-0.68,0.07c-0.2,0.01-0.3-0.06-0.3-0.21c0-0.13,0.11-0.22,0.33-0.28c0.56-0.17,0.94-0.42,1.13-0.75
				c0.19-0.33,0.29-0.88,0.29-1.66l0.01-0.56V49.82c0-1.07-0.44-1.7-1.31-1.88L82,47.83c-0.19-0.04-0.29-0.12-0.29-0.24
				c0-0.18,0.14-0.27,0.41-0.27c0.18,0,0.44,0.02,0.76,0.05c0.55,0.05,1.16,0.07,1.85,0.07c0.74,0,1.42-0.02,2.02-0.06
				c0.3-0.02,0.48-0.02,0.52-0.02c0.2,0,0.29,0.06,0.29,0.18c0,0.17-0.12,0.29-0.35,0.34l-0.42,0.1c-0.73,0.18-1.09,0.9-1.09,2.17
				v10.54l0.01,0.42c0,0.97,0.09,1.54,0.28,1.72c0.18,0.18,0.79,0.27,1.82,0.27c1.51,0,2.82-0.18,3.93-0.54
				c1.11-0.36,1.82-0.83,2.13-1.42c0.11-0.22,0.23-0.33,0.34-0.33c0.13,0,0.19,0.08,0.18,0.24c-0.03,0.53-0.29,1.11-0.79,1.75
				c-0.7,0.88-1.82,1.32-3.38,1.32c-0.26,0-0.56-0.01-0.9-0.04l-1.31-0.1C87.24,63.93,86.43,63.9,85.57,63.9z M49.72,35.91
				c0,0,0.53,0.65,1.34,1.06H83.5v1.1H51.04c-0.8,0.41-1.32,1.05-1.32,1.05c-0.59-1.12-2.3-1.61-2.3-1.61S49.14,37.03,49.72,35.91z
				 M77.39,49.31c-0.92-0.8-2.08-1.2-3.49-1.2c-0.32,0-0.54,0.06-0.66,0.18c-0.12,0.12-0.18,0.35-0.18,0.69l-0.01,0.35v10.1
				l-0.01,1.18l0.04,1.02c0.09,0.98,0.45,1.55,1.09,1.71c0.44,0.12,0.78,0.18,1,0.18c0.24,0,0.37,0.07,0.38,0.21
				c0.01,0.21-0.13,0.31-0.43,0.31c-0.14,0-0.41-0.02-0.81-0.05c-0.26-0.02-0.68-0.03-1.26-0.03l-0.86-0.02l-0.94,0.01
				c-0.48,0-0.84,0.01-1.08,0.05c-0.31,0.04-0.55,0.06-0.69,0.06c-0.21,0-0.31-0.08-0.31-0.24c0-0.15,0.13-0.24,0.4-0.28
				c0.63-0.1,1.06-0.45,1.29-1.06c0.23-0.61,0.34-1.72,0.34-3.31v-7.34c0-1.7-0.1-2.76-0.3-3.21c-0.2-0.45-0.71-0.72-1.51-0.81
				c-0.22-0.02-0.32-0.1-0.31-0.25c0.01-0.19,0.17-0.29,0.47-0.29c0.15,0,0.36,0.02,0.62,0.06c0.51,0.07,0.93,0.11,1.26,0.11
				c0.52,0,1.27-0.04,2.25-0.13c0.51-0.04,0.92-0.06,1.25-0.06c1.69,0,3.06,0.41,4.11,1.22c1.05,0.81,1.58,1.87,1.58,3.18
				c0,1.58-0.65,2.83-1.94,3.74c-0.97,0.68-1.99,1.02-3.08,1.02c-0.51,0-0.97-0.06-1.4-0.16c-0.42-0.11-0.63-0.23-0.61-0.36
				c0.02-0.1,0.09-0.15,0.23-0.15c0.06,0,0.14,0.01,0.24,0.04c0.19,0.06,0.48,0.09,0.89,0.09c1.16,0,2.09-0.32,2.78-0.96
				c0.7-0.64,1.05-1.49,1.05-2.55C78.76,51.13,78.3,50.12,77.39,49.31z M65.82,57.93c-0.36-0.32-1.41-0.76-3.14-1.35
				c-1.79-0.6-3.06-1.27-3.8-2.01c-0.75-0.73-1.12-1.69-1.12-2.86c0-1.31,0.49-2.37,1.46-3.19c0.97-0.82,2.23-1.23,3.76-1.23
				c0.86,0,1.59,0.12,2.19,0.38L66,48.02c0.07,0.03,0.15,0.05,0.22,0.05c0.1,0,0.19-0.04,0.29-0.12l0.17-0.15
				c0.02-0.03,0.07-0.05,0.13-0.05c0.2-0.01,0.3,0.19,0.3,0.59c0,0.14,0.05,0.54,0.16,1.22l0.19,1.25c0.04,0.27,0.06,0.43,0.06,0.5
				c0,0.25-0.09,0.38-0.26,0.38c-0.13,0-0.26-0.19-0.39-0.58c-0.29-0.87-0.88-1.59-1.77-2.16c-0.89-0.57-1.88-0.85-2.97-0.85
				c-0.87,0-1.59,0.26-2.18,0.77c-0.58,0.51-0.87,1.15-0.87,1.92c0,0.68,0.19,1.26,0.57,1.76c0.33,0.42,0.69,0.73,1.08,0.92
				c0.39,0.19,1.35,0.55,2.88,1.05c2.98,0.98,4.47,2.58,4.47,4.8c0,1.51-0.55,2.74-1.65,3.7c-1.1,0.96-2.5,1.44-4.22,1.44
				c-0.62,0-1.3-0.09-2.05-0.27c-0.75-0.18-1.29-0.38-1.64-0.62c-0.15-0.1-0.24-0.2-0.29-0.31c-0.05-0.11-0.12-0.39-0.22-0.84
				c-0.02-0.06-0.12-0.43-0.3-1.1c-0.21-0.73-0.32-1.24-0.32-1.55c0-0.24,0.08-0.36,0.25-0.35c0.15,0.01,0.28,0.2,0.39,0.6
				c0.29,1,0.9,1.84,1.84,2.52c0.93,0.68,1.95,1.02,3.04,1.02c1.11,0,2.05-0.33,2.82-0.98c0.77-0.65,1.15-1.45,1.15-2.39
				C66.88,59.3,66.53,58.54,65.82,57.93z M67.1,75.73c0.24-0.54,0.55-0.98,0.95-1.32c0.65-0.55,1.4-0.83,2.27-0.83
				c0.64,0,1.2,0.14,1.68,0.41l0.34,0.2c0.07,0.04,0.13,0.06,0.18,0.06c0.07,0,0.12-0.03,0.15-0.08L72.78,74
				c0.02-0.03,0.05-0.04,0.09-0.04c0.11,0,0.16,0.11,0.16,0.33l0.01,0.38v0.47l0.04,0.39l0.05,0.23c0.02,0.11,0.03,0.21,0.03,0.3
				c0,0.13-0.05,0.19-0.14,0.19c-0.06,0-0.09-0.04-0.11-0.12c-0.03-0.13-0.12-0.33-0.29-0.6c-0.16-0.27-0.32-0.48-0.47-0.64
				c-0.6-0.64-1.26-0.97-1.99-0.97c-0.65,0-1.18,0.27-1.58,0.8c-0.41,0.53-0.61,1.22-0.61,2.07c0,1.11,0.33,1.99,0.99,2.66
				c0.5,0.49,1.04,0.74,1.63,0.74c0.35,0,0.71-0.08,1.1-0.25c0.39-0.17,0.69-0.37,0.92-0.62l0.33-0.36
				c0.05-0.05,0.09-0.08,0.14-0.09c0.06,0,0.1,0.03,0.1,0.11c0,0.14-0.14,0.36-0.41,0.67c-0.71,0.8-1.59,1.2-2.63,1.2
				c-1.01,0-1.83-0.32-2.46-0.97c-0.63-0.65-0.94-1.48-0.94-2.52C66.75,76.82,66.87,76.27,67.1,75.73z M42.15,64.04
				c-0.35,0.1-0.75,0.15-1.19,0.15c-0.73,0-1.38-0.2-1.95-0.6c-0.58-0.4-1.16-1.05-1.76-1.96l-3.01-4.6l-0.17-0.26
				c-0.19-0.33-0.51-0.5-0.94-0.5H31.5l-0.27,0.05c-0.1,0.06-0.15,0.19-0.15,0.39v3.79l0.01,0.49c0,0.7,0.03,1.17,0.1,1.43
				c0.07,0.26,0.23,0.48,0.49,0.69c0.35,0.28,0.88,0.45,1.61,0.52c0.29,0.03,0.44,0.12,0.45,0.27c0.01,0.16-0.12,0.24-0.4,0.24
				c-0.11,0-0.35-0.02-0.71-0.05c-0.33-0.04-0.84-0.05-1.54-0.05l-1.16-0.01l-0.63,0.01c-0.27,0-0.6,0.02-0.99,0.06
				c-0.31,0.03-0.53,0.05-0.65,0.05c-0.2,0-0.3-0.08-0.3-0.25c0-0.12,0.1-0.2,0.3-0.24c0.65-0.12,1.07-0.41,1.27-0.88
				c0.2-0.46,0.3-1.38,0.3-2.74v-8.71l-0.02-1.26c0-1.26-0.44-1.96-1.32-2.11l-0.57-0.08c-0.26-0.05-0.39-0.14-0.39-0.29
				c0-0.17,0.14-0.25,0.41-0.25c0.07,0,0.35,0.02,0.85,0.05c0.29,0.03,0.65,0.04,1.08,0.04c0.37,0,1.01-0.03,1.9-0.09
				c0.65-0.04,1.22-0.06,1.71-0.06c1.86,0,3.26,0.35,4.2,1.05c0.94,0.7,1.42,1.74,1.42,3.12c0,1.82-1,3.22-2.99,4.22l3.34,4.92
				l0.39,0.58c1.03,1.51,1.98,2.3,2.86,2.35l0.39,0.02c0.15,0.01,0.21,0.07,0.21,0.17C42.68,63.83,42.5,63.94,42.15,64.04z
				 M44.22,64.13c-0.26,0-0.39-0.09-0.39-0.26c0-0.13,0.11-0.23,0.31-0.28l0.46-0.13c0.58-0.16,0.87-0.73,0.87-1.7l0.01-0.79V50.72
				c0-1.16-0.13-1.93-0.38-2.33c-0.25-0.4-0.75-0.6-1.48-0.6c-0.23,0-0.35-0.07-0.35-0.22c0-0.22,0.18-0.33,0.54-0.33
				c0.2,0,0.47,0.02,0.81,0.06c1.15,0.13,2.54,0.19,4.16,0.19c0.98,0,1.86-0.01,2.61-0.05l1.72-0.08c0.48-0.02,0.77-0.03,0.87-0.05
				c0.22-0.03,0.38-0.05,0.49-0.05c0.27,0,0.4,0.12,0.4,0.35c0,0.07-0.01,0.17-0.04,0.28c-0.03,0.11-0.06,0.43-0.1,0.97l-0.05,0.71
				c-0.04,0.47-0.08,0.76-0.12,0.87c-0.04,0.12-0.13,0.18-0.27,0.19c-0.16,0.01-0.24-0.11-0.24-0.36v-0.31
				c0-0.26-0.05-0.51-0.15-0.74c-0.15-0.36-0.46-0.61-0.93-0.73c-0.47-0.12-1.32-0.18-2.57-0.18h-1.9c-0.5,0-0.82,0.06-0.97,0.19
				c-0.15,0.13-0.22,0.4-0.22,0.83v4.88c0,0.37,0.04,0.6,0.1,0.67c0.07,0.08,0.28,0.12,0.62,0.12h1.86c0.85,0,1.52-0.05,2.01-0.15
				c0.44-0.09,0.72-0.2,0.85-0.35c0.13-0.15,0.24-0.48,0.35-1.02c0.04-0.2,0.14-0.3,0.31-0.29c0.16,0.01,0.23,0.12,0.23,0.33
				c0,0.06,0,0.14-0.01,0.27c-0.07,0.78-0.11,1.49-0.11,2.14c0,0.49,0.02,0.98,0.07,1.46c0.01,0.16,0.02,0.28,0.02,0.35
				c0,0.2-0.08,0.3-0.23,0.3c-0.17,0-0.28-0.09-0.31-0.27l-0.07-0.34c-0.1-0.54-0.29-0.91-0.58-1.1c-0.29-0.19-0.78-0.29-1.47-0.29
				h-2.67c-0.39,0-0.66,0.04-0.79,0.12c-0.13,0.08-0.2,0.24-0.2,0.48l0.01,0.4v4.46c0,0.69,0.12,1.12,0.37,1.29
				c0.25,0.17,0.87,0.26,1.87,0.26c3.17,0,5.2-0.71,6.1-2.14c0.09-0.14,0.18-0.21,0.27-0.22c0.15-0.01,0.22,0.1,0.22,0.31
				c0,0.52-0.29,1.15-0.88,1.87c-0.71,0.87-1.61,1.3-2.69,1.3c-0.23,0-0.55-0.01-0.94-0.05c-1.54-0.15-2.82-0.22-3.83-0.22
				c-1.41,0-2.41,0.05-2.99,0.15C44.55,64.1,44.34,64.13,44.22,64.13z M49.72,93.95c-0.59-1.12-2.3-1.61-2.3-1.61s1.71-0.47,2.3-1.6
				c0,0,0.53,0.65,1.34,1.06H83.5v1.1H51.04C50.25,93.31,49.72,93.95,49.72,93.95z M64.19,109.39c-0.09,0.03-0.19,0.04-0.3,0.04
				c-0.19,0-0.35-0.05-0.5-0.15c-0.15-0.1-0.3-0.27-0.45-0.5l-0.77-1.18l-0.04-0.07c-0.05-0.09-0.13-0.13-0.24-0.13h-0.41
				l-0.07,0.01c-0.02,0.01-0.04,0.05-0.04,0.1v0.97l0,0.12c0,0.18,0.01,0.3,0.03,0.36c0.02,0.07,0.06,0.12,0.12,0.17
				c0.09,0.07,0.23,0.12,0.41,0.13c0.07,0.01,0.11,0.03,0.11,0.07c0,0.04-0.03,0.06-0.1,0.06c-0.03,0-0.09,0-0.18-0.01
				c-0.09-0.01-0.22-0.01-0.39-0.01l-0.3,0l-0.16,0c-0.07,0-0.15,0-0.25,0.01c-0.08,0.01-0.14,0.01-0.17,0.01
				c-0.05,0-0.08-0.02-0.08-0.06c0-0.03,0.03-0.05,0.08-0.06c0.17-0.03,0.27-0.11,0.33-0.22c0.05-0.12,0.08-0.35,0.08-0.7v-2.23
				l-0.01-0.32c0-0.32-0.11-0.5-0.34-0.54l-0.15-0.02c-0.07-0.01-0.1-0.04-0.1-0.07c0-0.04,0.04-0.06,0.11-0.06
				c0.02,0,0.09,0,0.22,0.01c0.07,0.01,0.17,0.01,0.28,0.01c0.09,0,0.26-0.01,0.49-0.02c0.17-0.01,0.31-0.01,0.44-0.01
				c0.47,0,0.83,0.09,1.07,0.27c0.24,0.18,0.36,0.44,0.36,0.8c0,0.46-0.25,0.83-0.77,1.08l0.86,1.26l0.1,0.15
				c0.26,0.39,0.51,0.59,0.73,0.6l0.1,0.01c0.04,0,0.05,0.02,0.05,0.04C64.33,109.34,64.28,109.37,64.19,109.39z M67.56,109.09
				c-0.18,0.22-0.41,0.33-0.69,0.33c-0.06,0-0.14,0-0.24-0.01c-0.39-0.04-0.72-0.06-0.98-0.06c-0.36,0-0.62,0.01-0.77,0.04
				c-0.08,0.01-0.13,0.02-0.16,0.02c-0.07,0-0.1-0.02-0.1-0.07c0-0.03,0.03-0.06,0.08-0.07l0.12-0.03c0.15-0.04,0.22-0.19,0.22-0.44
				l0-0.2v-2.62c0-0.29-0.03-0.49-0.1-0.6c-0.07-0.1-0.19-0.15-0.38-0.15c-0.06,0-0.09-0.02-0.09-0.06c0-0.06,0.05-0.09,0.14-0.09
				c0.05,0,0.12,0.01,0.21,0.02c0.3,0.03,0.65,0.05,1.07,0.05c0.25,0,0.47,0,0.67-0.01l0.44-0.02c0.12,0,0.2-0.01,0.22-0.01
				c0.06-0.01,0.1-0.01,0.12-0.01c0.07,0,0.1,0.03,0.1,0.09c0,0.02,0,0.04-0.01,0.07c-0.01,0.03-0.01,0.11-0.02,0.25l-0.01,0.18
				c-0.01,0.12-0.02,0.19-0.03,0.22c-0.01,0.03-0.03,0.04-0.07,0.05c-0.04,0-0.06-0.03-0.06-0.09v-0.08c0-0.07-0.01-0.13-0.04-0.19
				c-0.04-0.09-0.12-0.15-0.24-0.19c-0.12-0.03-0.34-0.05-0.66-0.05h-0.49c-0.13,0-0.21,0.02-0.25,0.05
				c-0.04,0.03-0.06,0.1-0.06,0.21v1.25c0,0.09,0.01,0.15,0.03,0.17c0.02,0.02,0.07,0.03,0.16,0.03h0.48c0.22,0,0.39-0.01,0.51-0.04
				c0.11-0.02,0.18-0.05,0.22-0.09c0.03-0.04,0.06-0.12,0.09-0.26c0.01-0.05,0.04-0.08,0.08-0.07c0.04,0,0.06,0.03,0.06,0.08
				c0,0.01,0,0.04,0,0.07c-0.02,0.2-0.03,0.38-0.03,0.55c0,0.13,0.01,0.25,0.02,0.38c0,0.04,0.01,0.07,0.01,0.09
				c0,0.05-0.02,0.08-0.06,0.08c-0.04,0-0.07-0.02-0.08-0.07l-0.02-0.09c-0.02-0.14-0.07-0.23-0.15-0.28
				c-0.07-0.05-0.2-0.07-0.38-0.07h-0.68c-0.1,0-0.17,0.01-0.2,0.03c-0.03,0.02-0.05,0.06-0.05,0.12l0,0.1v1.14
				c0,0.17,0.03,0.29,0.09,0.33c0.06,0.04,0.22,0.06,0.48,0.06c0.81,0,1.33-0.18,1.56-0.55c0.02-0.03,0.05-0.05,0.07-0.06
				c0.04,0,0.06,0.03,0.06,0.08C67.79,108.75,67.71,108.91,67.56,109.09z M70.71,109.08c-0.28,0.25-0.64,0.37-1.08,0.37
				c-0.16,0-0.33-0.02-0.52-0.07c-0.19-0.04-0.33-0.1-0.42-0.16c-0.04-0.03-0.06-0.05-0.07-0.08c-0.01-0.03-0.03-0.1-0.06-0.22
				c0-0.02-0.03-0.11-0.08-0.28c-0.05-0.19-0.08-0.32-0.08-0.4c0-0.06,0.02-0.09,0.06-0.09c0.04,0,0.07,0.05,0.1,0.15
				c0.07,0.26,0.23,0.47,0.47,0.65c0.24,0.17,0.5,0.26,0.78,0.26c0.28,0,0.52-0.09,0.72-0.25c0.2-0.17,0.3-0.37,0.3-0.61
				c0-0.23-0.09-0.42-0.27-0.58c-0.09-0.08-0.36-0.2-0.81-0.35c-0.46-0.15-0.78-0.33-0.97-0.51c-0.19-0.19-0.29-0.43-0.29-0.73
				c0-0.33,0.12-0.61,0.37-0.82c0.25-0.21,0.57-0.32,0.96-0.32c0.22,0,0.41,0.03,0.56,0.1l0.21,0.09c0.02,0.01,0.04,0.01,0.06,0.01
				c0.02,0,0.05-0.01,0.07-0.03l0.04-0.04c0.01-0.01,0.02-0.01,0.03-0.01c0.05,0,0.08,0.05,0.08,0.15c0,0.03,0.01,0.14,0.04,0.31
				l0.05,0.32c0.01,0.07,0.02,0.11,0.02,0.13c0,0.06-0.02,0.1-0.07,0.1c-0.03,0-0.07-0.05-0.1-0.15c-0.07-0.22-0.23-0.41-0.45-0.55
				c-0.23-0.15-0.48-0.22-0.76-0.22c-0.22,0-0.41,0.07-0.56,0.2c-0.15,0.13-0.22,0.29-0.22,0.49c0,0.17,0.05,0.32,0.15,0.45
				c0.09,0.11,0.18,0.19,0.28,0.23c0.1,0.05,0.35,0.14,0.74,0.27c0.76,0.25,1.14,0.66,1.14,1.23
				C71.13,108.52,71,108.84,70.71,109.08z M75.61,108.82c-0.42,0.42-0.95,0.63-1.6,0.63c-0.67,0-1.21-0.2-1.62-0.61
				c-0.41-0.41-0.62-0.94-0.62-1.59c0-0.29,0.05-0.57,0.16-0.85c0.11-0.28,0.25-0.51,0.44-0.7c0.19-0.2,0.44-0.36,0.74-0.47
				c0.3-0.12,0.6-0.17,0.91-0.17c0.65,0,1.18,0.2,1.59,0.6c0.41,0.4,0.62,0.91,0.62,1.54C76.24,107.85,76.03,108.39,75.61,108.82z
				 M80.47,109.39c-0.09,0.03-0.19,0.04-0.3,0.04c-0.19,0-0.35-0.05-0.5-0.15c-0.15-0.1-0.3-0.27-0.45-0.5l-0.77-1.18l-0.04-0.07
				c-0.05-0.09-0.13-0.13-0.24-0.13h-0.41l-0.07,0.01c-0.02,0.01-0.04,0.05-0.04,0.1v0.97l0,0.12c0,0.18,0.01,0.3,0.03,0.36
				c0.02,0.07,0.06,0.12,0.12,0.17c0.09,0.07,0.23,0.12,0.41,0.13c0.07,0.01,0.11,0.03,0.11,0.07c0,0.04-0.03,0.06-0.1,0.06
				c-0.03,0-0.09,0-0.18-0.01c-0.09-0.01-0.22-0.01-0.39-0.01l-0.3,0l-0.16,0c-0.07,0-0.15,0-0.25,0.01
				c-0.08,0.01-0.14,0.01-0.17,0.01c-0.05,0-0.08-0.02-0.08-0.06c0-0.03,0.03-0.05,0.08-0.06c0.17-0.03,0.27-0.11,0.33-0.22
				c0.05-0.12,0.08-0.35,0.08-0.7v-2.23l-0.01-0.32c0-0.32-0.11-0.5-0.34-0.54l-0.15-0.02c-0.07-0.01-0.1-0.04-0.1-0.07
				c0-0.04,0.04-0.06,0.11-0.06c0.02,0,0.09,0,0.22,0.01c0.07,0.01,0.17,0.01,0.28,0.01c0.1,0,0.26-0.01,0.49-0.02
				c0.17-0.01,0.31-0.01,0.44-0.01c0.47,0,0.83,0.09,1.07,0.27c0.24,0.18,0.36,0.44,0.36,0.8c0,0.46-0.25,0.83-0.77,1.08l0.86,1.26
				l0.1,0.15c0.26,0.39,0.51,0.59,0.73,0.6l0.1,0.01c0.04,0,0.05,0.02,0.05,0.04C80.6,109.34,80.56,109.37,80.47,109.39z
				 M84.08,105.91c-0.04,0-0.06-0.03-0.07-0.1c-0.03-0.15-0.07-0.24-0.13-0.29c-0.06-0.04-0.18-0.07-0.35-0.07h-0.87
				c-0.09,0-0.15,0.01-0.17,0.04c-0.02,0.03-0.04,0.09-0.04,0.18v3.04l0,0.12c0.01,0.24,0.15,0.38,0.41,0.43
				c0.07,0.01,0.11,0.03,0.11,0.07c0,0.04-0.03,0.07-0.09,0.07c-0.02,0-0.08-0.01-0.15-0.02c-0.04-0.01-0.13-0.01-0.28-0.01l-0.23,0
				l-0.24,0c-0.09,0-0.16,0-0.22,0.01c-0.12,0.01-0.19,0.02-0.21,0.02c-0.06,0-0.09-0.02-0.09-0.07c0-0.03,0.03-0.05,0.1-0.06
				c0.16-0.02,0.27-0.06,0.32-0.13c0.06-0.07,0.08-0.19,0.08-0.36v-3.08l0-0.08c0-0.07-0.01-0.12-0.03-0.14
				c-0.02-0.02-0.07-0.03-0.15-0.03h-0.82c-0.17,0-0.29,0.03-0.36,0.1c-0.08,0.07-0.13,0.19-0.17,0.38
				c-0.02,0.08-0.05,0.12-0.08,0.12c-0.04,0-0.06-0.03-0.06-0.08c0-0.04,0.01-0.12,0.04-0.24c0.03-0.15,0.05-0.27,0.05-0.37
				c0-0.09,0.01-0.16,0.03-0.19c0.02-0.03,0.07-0.04,0.14-0.04h3.34c0.11,0,0.18,0.01,0.21,0.04c0.02,0.03,0.04,0.1,0.04,0.22
				c0,0.12,0.01,0.21,0.01,0.26c0.01,0.07,0.02,0.12,0.02,0.15C84.15,105.88,84.13,105.91,84.08,105.91z M86.74,109.08
				c-0.28,0.25-0.64,0.37-1.08,0.37c-0.16,0-0.33-0.02-0.52-0.07c-0.19-0.04-0.33-0.1-0.42-0.16c-0.04-0.03-0.06-0.05-0.07-0.08
				c-0.01-0.03-0.03-0.1-0.06-0.22c0-0.02-0.03-0.11-0.08-0.28c-0.05-0.19-0.08-0.32-0.08-0.4c0-0.06,0.02-0.09,0.06-0.09
				c0.04,0,0.07,0.05,0.1,0.15c0.07,0.26,0.23,0.47,0.47,0.65c0.24,0.17,0.5,0.26,0.78,0.26c0.28,0,0.52-0.09,0.72-0.25
				c0.2-0.17,0.3-0.37,0.3-0.61c0-0.23-0.09-0.42-0.27-0.58c-0.09-0.08-0.36-0.2-0.81-0.35c-0.46-0.15-0.78-0.33-0.97-0.51
				s-0.29-0.43-0.29-0.73c0-0.33,0.12-0.61,0.37-0.82c0.25-0.21,0.57-0.32,0.96-0.32c0.22,0,0.41,0.03,0.56,0.1l0.21,0.09
				c0.02,0.01,0.04,0.01,0.06,0.01c0.02,0,0.05-0.01,0.07-0.03l0.04-0.04c0.01-0.01,0.02-0.01,0.03-0.01c0.05,0,0.08,0.05,0.08,0.15
				c0,0.03,0.01,0.14,0.04,0.31l0.05,0.32c0.01,0.07,0.02,0.11,0.02,0.13c0,0.06-0.02,0.1-0.07,0.1c-0.03,0-0.07-0.05-0.1-0.15
				c-0.07-0.22-0.23-0.41-0.45-0.55c-0.23-0.15-0.48-0.22-0.76-0.22c-0.22,0-0.41,0.07-0.56,0.2c-0.15,0.13-0.22,0.29-0.22,0.49
				c0,0.17,0.05,0.32,0.15,0.45c0.09,0.11,0.18,0.19,0.28,0.23c0.1,0.05,0.35,0.14,0.74,0.27c0.76,0.25,1.14,0.66,1.14,1.23
				C87.16,108.52,87.02,108.84,86.74,109.08z M92.8,105.91c-0.04,0-0.06-0.03-0.07-0.1c-0.03-0.15-0.07-0.24-0.13-0.29
				c-0.06-0.04-0.18-0.07-0.35-0.07h-0.87c-0.09,0-0.15,0.01-0.17,0.04c-0.02,0.03-0.04,0.09-0.04,0.18v3.04l0,0.12
				c0.01,0.24,0.15,0.38,0.41,0.43c0.07,0.01,0.11,0.03,0.11,0.07c0,0.04-0.03,0.07-0.09,0.07c-0.02,0-0.08-0.01-0.15-0.02
				c-0.04-0.01-0.13-0.01-0.28-0.01l-0.23,0l-0.24,0c-0.09,0-0.16,0-0.22,0.01c-0.12,0.01-0.19,0.02-0.21,0.02
				c-0.06,0-0.09-0.02-0.09-0.07c0-0.03,0.03-0.05,0.1-0.06c0.16-0.02,0.27-0.06,0.32-0.13c0.06-0.07,0.08-0.19,0.08-0.36v-3.08
				l0-0.08c0-0.07-0.01-0.12-0.03-0.14c-0.02-0.02-0.07-0.03-0.15-0.03h-0.82c-0.17,0-0.29,0.03-0.36,0.1
				c-0.08,0.07-0.13,0.19-0.17,0.38c-0.02,0.08-0.05,0.12-0.08,0.12c-0.04,0-0.06-0.03-0.06-0.08c0-0.04,0.01-0.12,0.04-0.24
				c0.03-0.15,0.05-0.27,0.05-0.37c0-0.09,0.01-0.16,0.03-0.19c0.02-0.03,0.07-0.04,0.14-0.04h3.34c0.11,0,0.18,0.01,0.21,0.04
				c0.02,0.03,0.04,0.1,0.04,0.22c0,0.12,0.01,0.21,0.01,0.26c0.01,0.07,0.02,0.12,0.02,0.15C92.87,105.88,92.85,105.91,92.8,105.91
				z M101.42,109.39c-0.02,0-0.06,0-0.12-0.01c-0.11-0.01-0.3-0.02-0.57-0.02c-0.29,0-0.47,0.01-0.54,0.02
				c-0.04,0.01-0.08,0.01-0.1,0.01c-0.05,0-0.08-0.02-0.08-0.06c0-0.03,0.03-0.05,0.08-0.06l0.1-0.02c0.1-0.02,0.15-0.09,0.15-0.21
				c0-0.11-0.06-0.33-0.19-0.65l-0.15-0.41c-0.04-0.11-0.08-0.18-0.1-0.2c-0.03-0.02-0.09-0.03-0.21-0.03h-1.12
				c-0.15,0-0.25,0.01-0.28,0.04c-0.04,0.02-0.09,0.11-0.15,0.25l-0.2,0.46c-0.09,0.21-0.14,0.36-0.14,0.46
				c0,0.1,0.02,0.17,0.07,0.21c0.05,0.04,0.15,0.08,0.29,0.11c0.06,0.01,0.09,0.04,0.1,0.07c0,0.03-0.03,0.05-0.09,0.05
				c-0.02,0-0.06,0-0.1,0l-0.3-0.02c-0.1,0-0.21-0.01-0.34-0.01c-0.06,0-0.11,0-0.14,0c-0.1,0.01-0.16,0.02-0.17,0.02
				c-0.04,0-0.05-0.02-0.06-0.04c-0.02,0.01-0.05,0.02-0.08,0.03c-0.09,0.03-0.19,0.04-0.3,0.04c-0.19,0-0.35-0.05-0.5-0.15
				c-0.15-0.1-0.3-0.27-0.45-0.5l-0.77-1.18l-0.04-0.07c-0.05-0.09-0.13-0.13-0.24-0.13h-0.41l-0.07,0.01
				c-0.02,0.01-0.04,0.05-0.04,0.1v0.97l0,0.12c0,0.18,0.01,0.3,0.03,0.36c0.02,0.07,0.06,0.12,0.12,0.17
				c0.09,0.07,0.23,0.12,0.41,0.13c0.07,0.01,0.11,0.03,0.11,0.07c0,0.04-0.03,0.06-0.1,0.06c-0.03,0-0.09,0-0.18-0.01
				c-0.09-0.01-0.22-0.01-0.39-0.01l-0.3,0l-0.16,0c-0.07,0-0.15,0-0.25,0.01c-0.08,0.01-0.14,0.01-0.17,0.01
				c-0.05,0-0.08-0.02-0.08-0.06c0-0.03,0.03-0.05,0.08-0.06c0.17-0.03,0.27-0.11,0.33-0.22c0.05-0.12,0.08-0.35,0.08-0.7v-2.23
				l-0.01-0.32c0-0.32-0.11-0.5-0.34-0.54l-0.15-0.02c-0.07-0.01-0.1-0.04-0.1-0.07c0-0.04,0.04-0.06,0.11-0.06
				c0.02,0,0.09,0,0.22,0.01c0.07,0.01,0.17,0.01,0.28,0.01c0.09,0,0.26-0.01,0.49-0.02c0.17-0.01,0.31-0.01,0.44-0.01
				c0.47,0,0.83,0.09,1.07,0.27c0.24,0.18,0.36,0.44,0.36,0.8c0,0.46-0.25,0.83-0.77,1.08l0.86,1.26l0.1,0.15
				c0.26,0.39,0.51,0.59,0.73,0.6l0.1,0.01c0.01,0,0.01,0.01,0.02,0.02c0,0,0,0,0,0l0.12-0.03c0.04-0.01,0.1-0.06,0.17-0.15
				c0.07-0.09,0.13-0.18,0.17-0.27l0.09-0.2l1.59-3.54c0.03-0.06,0.06-0.09,0.09-0.09c0.03,0,0.06,0.03,0.08,0.09l1.33,3.41
				l0.07,0.17c0.1,0.25,0.18,0.41,0.24,0.47c0.06,0.06,0.19,0.11,0.39,0.15c0.06,0.01,0.1,0.04,0.09,0.07
				C101.51,109.38,101.48,109.39,101.42,109.39z M103.34,109.41c-0.03,0-0.07,0-0.12-0.01c-0.06-0.01-0.17-0.01-0.33-0.01
				l-0.45-0.01l-0.36,0.02c-0.06,0.01-0.11,0.01-0.15,0.01c-0.06,0-0.08-0.02-0.08-0.06c0-0.04,0.03-0.06,0.1-0.07
				c0.16-0.03,0.26-0.08,0.3-0.16c0.05-0.08,0.07-0.25,0.07-0.52v-2.66c0-0.26-0.03-0.43-0.09-0.52c-0.06-0.09-0.18-0.15-0.38-0.18
				c-0.06-0.01-0.1-0.04-0.1-0.07c0-0.04,0.03-0.07,0.09-0.07c0.02,0,0.04,0,0.06,0c0.15,0.02,0.35,0.03,0.6,0.03
				c0.15,0,0.28,0,0.39-0.01l0.21-0.02c0.04,0,0.07,0,0.08,0c0.06,0,0.08,0.02,0.08,0.06c0,0.04-0.03,0.06-0.08,0.08l-0.16,0.06
				c-0.15,0.06-0.23,0.31-0.23,0.74v2.32c0,0.29,0.02,0.48,0.05,0.58c0.04,0.1,0.09,0.18,0.15,0.22c0.06,0.04,0.16,0.07,0.29,0.09
				c0.1,0.01,0.15,0.04,0.15,0.08C103.43,109.38,103.4,109.41,103.34,109.41z M107.01,109.08c-0.18,0.22-0.47,0.34-0.87,0.34
				c-0.07,0-0.14,0-0.23-0.01l-0.33-0.02c-0.2-0.01-0.4-0.02-0.62-0.02c-0.25,0-0.47,0.01-0.64,0.04c-0.07,0.01-0.13,0.02-0.17,0.02
				c-0.05,0-0.08-0.02-0.08-0.06c0-0.03,0.03-0.06,0.08-0.07c0.14-0.04,0.24-0.11,0.29-0.19c0.05-0.09,0.07-0.23,0.07-0.42l0-0.14
				v-2.77c0-0.28-0.11-0.44-0.33-0.48l-0.14-0.03c-0.05-0.01-0.07-0.03-0.07-0.06c0-0.05,0.04-0.07,0.11-0.07
				c0.05,0,0.11,0,0.19,0.01c0.14,0.01,0.3,0.02,0.47,0.02c0.19,0,0.36-0.01,0.52-0.02c0.08,0,0.12-0.01,0.13-0.01
				c0.05,0,0.07,0.01,0.07,0.05c0,0.04-0.03,0.07-0.09,0.09l-0.11,0.02c-0.19,0.05-0.28,0.23-0.28,0.56v2.7l0,0.11
				c0,0.25,0.02,0.39,0.07,0.44c0.05,0.04,0.2,0.07,0.46,0.07c0.39,0,0.72-0.05,1.01-0.14c0.28-0.09,0.47-0.21,0.54-0.36
				c0.03-0.06,0.06-0.08,0.09-0.08c0.03,0,0.05,0.02,0.05,0.06C107.21,108.77,107.14,108.91,107.01,109.08z M110.18,109.08
				c-0.28,0.25-0.64,0.37-1.08,0.37c-0.16,0-0.33-0.02-0.52-0.07c-0.19-0.04-0.33-0.1-0.42-0.16c-0.04-0.03-0.06-0.05-0.07-0.08
				c-0.01-0.03-0.03-0.1-0.06-0.22c0-0.02-0.03-0.11-0.08-0.28c-0.05-0.19-0.08-0.32-0.08-0.4c0-0.06,0.02-0.09,0.06-0.09
				c0.04,0,0.07,0.05,0.1,0.15c0.07,0.26,0.23,0.47,0.47,0.65c0.24,0.17,0.5,0.26,0.78,0.26c0.28,0,0.52-0.09,0.72-0.25
				c0.2-0.17,0.3-0.37,0.3-0.61c0-0.23-0.09-0.42-0.27-0.58c-0.09-0.08-0.36-0.2-0.81-0.35c-0.46-0.15-0.78-0.33-0.97-0.51
				c-0.19-0.19-0.29-0.43-0.29-0.73c0-0.33,0.12-0.61,0.37-0.82c0.25-0.21,0.57-0.32,0.96-0.32c0.22,0,0.41,0.03,0.56,0.1l0.21,0.09
				c0.02,0.01,0.04,0.01,0.06,0.01c0.02,0,0.05-0.01,0.07-0.03l0.04-0.04c0.01-0.01,0.02-0.01,0.03-0.01c0.05,0,0.08,0.05,0.08,0.15
				c0,0.03,0.01,0.14,0.04,0.31l0.05,0.32c0.01,0.07,0.02,0.11,0.02,0.13c0,0.06-0.02,0.1-0.07,0.1c-0.03,0-0.07-0.05-0.1-0.15
				c-0.07-0.22-0.23-0.41-0.45-0.55c-0.23-0.15-0.48-0.22-0.76-0.22c-0.22,0-0.41,0.07-0.56,0.2c-0.15,0.13-0.22,0.29-0.22,0.49
				c0,0.17,0.05,0.32,0.15,0.45c0.09,0.11,0.18,0.19,0.28,0.23c0.1,0.05,0.35,0.14,0.74,0.27c0.76,0.25,1.14,0.66,1.14,1.23
				C110.6,108.52,110.46,108.84,110.18,109.08z M117.74,109.34c-0.14,0.05-0.27,0.07-0.42,0.07c-0.21,0-0.39-0.04-0.56-0.12
				c-0.17-0.08-0.42-0.24-0.74-0.49c-0.46,0.41-0.94,0.61-1.44,0.61c-0.51,0-0.94-0.15-1.28-0.44c-0.34-0.29-0.51-0.67-0.51-1.12
				c0-0.37,0.13-0.69,0.39-0.94c0.14-0.15,0.34-0.25,0.6-0.31c-0.18-0.24-0.28-0.47-0.28-0.7c0-0.25,0.09-0.44,0.28-0.6
				c0.18-0.15,0.43-0.23,0.73-0.23c0.15,0,0.31,0.03,0.48,0.1l0.15,0.06l0.03,0.01c0.02,0,0.04-0.01,0.06-0.03
				c0.02-0.02,0.04-0.02,0.05-0.02c0.06,0,0.08,0.07,0.08,0.22l0.01,0.17l0.01,0.25c0,0.05,0,0.08,0,0.1c0,0.04-0.02,0.07-0.07,0.07
				c-0.03,0-0.05-0.02-0.07-0.07c-0.06-0.17-0.18-0.32-0.35-0.45c-0.18-0.13-0.35-0.2-0.52-0.2c-0.14,0-0.27,0.04-0.37,0.13
				c-0.1,0.09-0.15,0.2-0.15,0.32c0,0.12,0.05,0.25,0.15,0.4c0.1,0.15,0.26,0.35,0.49,0.58l0.78,0.8c0.2,0.21,0.49,0.47,0.86,0.79
				c0.11-0.18,0.16-0.38,0.16-0.6c0-0.16-0.03-0.3-0.1-0.41c-0.06-0.11-0.15-0.17-0.26-0.2l-0.15-0.03
				c-0.06-0.01-0.09-0.04-0.09-0.08c0-0.03,0.02-0.04,0.07-0.04c0.02,0,0.04,0,0.08,0.01c0.06,0.01,0.24,0.01,0.54,0.01
				c0.1,0,0.18,0,0.26-0.01c0.07-0.01,0.12-0.01,0.16-0.01c0.04,0,0.06,0.01,0.06,0.05c0,0.03-0.03,0.06-0.08,0.08
				c-0.07,0.03-0.11,0.07-0.14,0.13c-0.03,0.06-0.04,0.16-0.06,0.32c-0.03,0.35-0.12,0.66-0.27,0.92c0.62,0.52,1.06,0.78,1.34,0.78
				c0.04,0,0.08-0.01,0.12-0.02c0.05-0.01,0.09-0.03,0.11-0.03c0.04,0,0.05,0.01,0.05,0.05
				C117.95,109.24,117.88,109.29,117.74,109.34z M122.75,109.39c-0.09,0.03-0.19,0.04-0.31,0.04c-0.19,0-0.35-0.05-0.5-0.15
				c-0.15-0.1-0.3-0.27-0.45-0.5l-0.77-1.18l-0.04-0.07c-0.05-0.09-0.13-0.13-0.24-0.13h-0.41l-0.07,0.01
				c-0.02,0.01-0.04,0.05-0.04,0.1v0.97l0,0.12c0,0.18,0.01,0.3,0.03,0.36c0.02,0.07,0.06,0.12,0.12,0.17
				c0.09,0.07,0.23,0.12,0.41,0.13c0.07,0.01,0.11,0.03,0.11,0.07c0,0.04-0.03,0.06-0.1,0.06c-0.03,0-0.09,0-0.18-0.01
				c-0.09-0.01-0.22-0.01-0.39-0.01l-0.3,0l-0.16,0c-0.07,0-0.15,0-0.25,0.01c-0.08,0.01-0.14,0.01-0.17,0.01
				c-0.05,0-0.08-0.02-0.08-0.06c0-0.03,0.03-0.05,0.08-0.06c0.17-0.03,0.27-0.11,0.33-0.22c0.05-0.12,0.08-0.35,0.08-0.7v-2.23
				l-0.01-0.32c0-0.32-0.11-0.5-0.34-0.54l-0.15-0.02c-0.07-0.01-0.1-0.04-0.1-0.07c0-0.04,0.04-0.06,0.11-0.06
				c0.02,0,0.09,0,0.22,0.01c0.07,0.01,0.17,0.01,0.28,0.01c0.09,0,0.26-0.01,0.49-0.02c0.17-0.01,0.31-0.01,0.44-0.01
				c0.47,0,0.83,0.09,1.07,0.27c0.24,0.18,0.36,0.44,0.36,0.8c0,0.46-0.25,0.83-0.77,1.08l0.86,1.26l0.1,0.15
				c0.26,0.39,0.51,0.59,0.73,0.6l0.1,0.01c0.04,0,0.05,0.02,0.05,0.04C122.89,109.34,122.84,109.37,122.75,109.39z M126.25,109.09
				c-0.18,0.22-0.41,0.33-0.69,0.33c-0.06,0-0.14,0-0.24-0.01c-0.39-0.04-0.72-0.06-0.98-0.06c-0.36,0-0.62,0.01-0.77,0.04
				c-0.08,0.01-0.13,0.02-0.16,0.02c-0.07,0-0.1-0.02-0.1-0.07c0-0.03,0.03-0.06,0.08-0.07l0.12-0.03c0.15-0.04,0.22-0.19,0.22-0.44
				l0-0.2v-2.62c0-0.29-0.03-0.49-0.1-0.6c-0.06-0.1-0.19-0.15-0.38-0.15c-0.06,0-0.09-0.02-0.09-0.06c0-0.06,0.05-0.09,0.14-0.09
				c0.05,0,0.12,0.01,0.21,0.02c0.3,0.03,0.65,0.05,1.07,0.05c0.25,0,0.47,0,0.67-0.01l0.44-0.02c0.12,0,0.2-0.01,0.22-0.01
				c0.06-0.01,0.1-0.01,0.12-0.01c0.07,0,0.1,0.03,0.1,0.09c0,0.02,0,0.04-0.01,0.07c-0.01,0.03-0.01,0.11-0.02,0.25l-0.01,0.18
				c-0.01,0.12-0.02,0.19-0.03,0.22c-0.01,0.03-0.03,0.04-0.07,0.05c-0.04,0-0.06-0.03-0.06-0.09v-0.08c0-0.07-0.01-0.13-0.04-0.19
				c-0.04-0.09-0.12-0.15-0.24-0.19c-0.12-0.03-0.34-0.05-0.66-0.05h-0.49c-0.13,0-0.21,0.02-0.25,0.05
				c-0.04,0.03-0.06,0.1-0.06,0.21v1.25c0,0.09,0.01,0.15,0.03,0.17c0.02,0.02,0.07,0.03,0.16,0.03h0.48c0.22,0,0.39-0.01,0.51-0.04
				c0.11-0.02,0.18-0.05,0.22-0.09c0.03-0.04,0.06-0.12,0.09-0.26c0.01-0.05,0.04-0.08,0.08-0.07c0.04,0,0.06,0.03,0.06,0.08
				c0,0.01,0,0.04,0,0.07c-0.02,0.2-0.03,0.38-0.03,0.55c0,0.13,0.01,0.25,0.02,0.38c0,0.04,0.01,0.07,0.01,0.09
				c0,0.05-0.02,0.08-0.06,0.08c-0.04,0-0.07-0.02-0.08-0.07l-0.02-0.09c-0.02-0.14-0.07-0.23-0.15-0.28
				c-0.07-0.05-0.2-0.07-0.38-0.07h-0.68c-0.1,0-0.17,0.01-0.2,0.03c-0.03,0.02-0.05,0.06-0.05,0.12l0,0.1v1.14
				c0,0.17,0.03,0.29,0.09,0.33c0.06,0.04,0.22,0.06,0.48,0.06c0.81,0,1.33-0.18,1.56-0.55c0.02-0.03,0.05-0.05,0.07-0.06
				c0.04,0,0.06,0.03,0.06,0.08C126.47,108.75,126.4,108.91,126.25,109.09z M129.4,109.08c-0.28,0.25-0.64,0.37-1.08,0.37
				c-0.16,0-0.33-0.02-0.52-0.07c-0.19-0.04-0.33-0.1-0.42-0.16c-0.04-0.03-0.06-0.05-0.07-0.08c-0.01-0.03-0.03-0.1-0.06-0.22
				c0-0.02-0.03-0.11-0.08-0.28c-0.05-0.19-0.08-0.32-0.08-0.4c0-0.06,0.02-0.09,0.06-0.09c0.04,0,0.07,0.05,0.1,0.15
				c0.07,0.26,0.23,0.47,0.47,0.65c0.24,0.17,0.5,0.26,0.78,0.26c0.28,0,0.52-0.09,0.72-0.25c0.2-0.17,0.3-0.37,0.3-0.61
				c0-0.23-0.09-0.42-0.27-0.58c-0.09-0.08-0.36-0.2-0.81-0.35c-0.46-0.15-0.78-0.33-0.97-0.51c-0.19-0.19-0.29-0.43-0.29-0.73
				c0-0.33,0.12-0.61,0.37-0.82c0.25-0.21,0.57-0.32,0.96-0.32c0.22,0,0.41,0.03,0.56,0.1l0.21,0.09c0.02,0.01,0.04,0.01,0.06,0.01
				c0.02,0,0.05-0.01,0.07-0.03l0.04-0.04c0.01-0.01,0.02-0.01,0.03-0.01c0.05,0,0.08,0.05,0.08,0.15c0,0.03,0.01,0.14,0.04,0.31
				l0.05,0.32c0.01,0.07,0.02,0.11,0.02,0.13c0,0.06-0.02,0.1-0.07,0.1c-0.03,0-0.07-0.05-0.1-0.15c-0.07-0.22-0.23-0.41-0.45-0.55
				c-0.23-0.15-0.48-0.22-0.76-0.22c-0.22,0-0.41,0.07-0.56,0.2c-0.15,0.13-0.22,0.29-0.22,0.49c0,0.17,0.05,0.32,0.15,0.45
				c0.09,0.11,0.18,0.19,0.28,0.23c0.1,0.05,0.35,0.14,0.74,0.27c0.76,0.25,1.14,0.66,1.14,1.23
				C129.82,108.52,129.68,108.84,129.4,109.08z M131.91,109.41c-0.03,0-0.07,0-0.12-0.01c-0.06-0.01-0.17-0.01-0.33-0.01l-0.45-0.01
				l-0.36,0.02c-0.06,0.01-0.11,0.01-0.15,0.01c-0.06,0-0.08-0.02-0.08-0.06c0-0.04,0.03-0.06,0.1-0.07
				c0.16-0.03,0.26-0.08,0.3-0.16c0.05-0.08,0.07-0.25,0.07-0.52v-2.66c0-0.26-0.03-0.43-0.09-0.52c-0.06-0.09-0.18-0.15-0.38-0.18
				c-0.06-0.01-0.1-0.04-0.1-0.07c0-0.04,0.03-0.07,0.09-0.07c0.02,0,0.04,0,0.06,0c0.15,0.02,0.35,0.03,0.6,0.03
				c0.15,0,0.28,0,0.39-0.01l0.21-0.02c0.04,0,0.06,0,0.08,0c0.06,0,0.08,0.02,0.08,0.06c0,0.04-0.03,0.06-0.08,0.08l-0.16,0.06
				c-0.15,0.06-0.23,0.31-0.23,0.74v2.32c0,0.29,0.02,0.48,0.05,0.58c0.04,0.1,0.09,0.18,0.15,0.22c0.06,0.04,0.16,0.07,0.29,0.09
				c0.1,0.01,0.15,0.04,0.15,0.08C132,109.38,131.97,109.41,131.91,109.41z M127.96,96.64c-6.99,1.26-11.88-2.15-11.88-2.15
				c-0.73-0.46-1.81-1.14-3-1.89c-0.21,0.1-1.63,0.79-3.62,1.59c4.48,1.5,9.43,2.26,9.43,2.26c-2.83,0.63-7.14-0.59-10.51-1.84
				c-3.4,1.28-7.87,2.58-10.78,1.93c0,0,5.15-0.78,9.69-2.35c-1.99-0.79-3.48-1.5-3.84-1.67c-1.24,0.78-2.37,1.49-3.12,1.97
				c0,0-4.89,3.42-11.88,2.15c0,0-5.57-1.16-3.84-5.94c0,0,1.47-4.31,8.88-3.31c0,0,4.47,0.63,8.88,3.68c0,0,0.74,0.41,1.63-0.16
				l3.41-1.85c-1.05-0.66-1.76-1.1-1.76-1.1l2.36,0.58l0.17,0.09l0.17-0.09l2.37-0.58c0,0-0.7,0.44-1.76,1.1l3.41,1.85
				c0.99,0.67,1.63,0.16,1.63,0.16c4.42-3.05,8.88-3.68,8.88-3.68c7.41-1,8.88,3.31,8.88,3.31
				C133.53,95.48,127.96,96.64,127.96,96.64z M136.49,108.29c-0.17,0.33-0.4,0.58-0.71,0.77c-0.38,0.24-0.8,0.36-1.25,0.36
				c-0.05,0-0.15-0.01-0.28-0.02c-0.28-0.02-0.52-0.03-0.72-0.03c-0.22,0-0.41,0.01-0.58,0.03c-0.07,0.01-0.13,0.02-0.18,0.02
				c-0.07,0-0.11-0.02-0.11-0.07c0-0.03,0.03-0.06,0.09-0.07c0.14-0.03,0.23-0.08,0.27-0.16c0.04-0.07,0.06-0.23,0.06-0.46v-2.79
				c0-0.21-0.04-0.36-0.1-0.46c-0.07-0.1-0.19-0.15-0.35-0.17c-0.07,0-0.1-0.03-0.1-0.06c0-0.04,0.03-0.06,0.08-0.06l0.24,0.01
				c0.03,0,0.1,0,0.22,0c0.21,0,0.37-0.01,0.49-0.02l0.29-0.03c0.12-0.01,0.26-0.01,0.41-0.01c0.85,0,1.48,0.21,1.9,0.64
				c0.39,0.39,0.58,0.89,0.58,1.49C136.74,107.6,136.66,107.96,136.49,108.29z M140.05,109.09c-0.18,0.22-0.41,0.33-0.69,0.33
				c-0.06,0-0.14,0-0.24-0.01c-0.39-0.04-0.72-0.06-0.98-0.06c-0.36,0-0.62,0.01-0.77,0.04c-0.08,0.01-0.13,0.02-0.16,0.02
				c-0.07,0-0.1-0.02-0.1-0.07c0-0.03,0.03-0.06,0.08-0.07l0.12-0.03c0.15-0.04,0.22-0.19,0.22-0.44l0-0.2v-2.62
				c0-0.29-0.03-0.49-0.1-0.6c-0.06-0.1-0.19-0.15-0.38-0.15c-0.06,0-0.09-0.02-0.09-0.06c0-0.06,0.05-0.09,0.14-0.09
				c0.05,0,0.12,0.01,0.21,0.02c0.3,0.03,0.65,0.05,1.07,0.05c0.25,0,0.47,0,0.67-0.01l0.44-0.02c0.12,0,0.2-0.01,0.22-0.01
				c0.06-0.01,0.1-0.01,0.12-0.01c0.07,0,0.1,0.03,0.1,0.09c0,0.02,0,0.04-0.01,0.07c-0.01,0.03-0.01,0.11-0.02,0.25l-0.01,0.18
				c-0.01,0.12-0.02,0.19-0.03,0.22c-0.01,0.03-0.03,0.04-0.07,0.05c-0.04,0-0.06-0.03-0.06-0.09v-0.08c0-0.07-0.01-0.13-0.04-0.19
				c-0.04-0.09-0.12-0.15-0.24-0.19c-0.12-0.03-0.34-0.05-0.66-0.05h-0.49c-0.13,0-0.21,0.02-0.25,0.05
				c-0.04,0.03-0.06,0.1-0.06,0.21v1.25c0,0.09,0.01,0.15,0.03,0.17c0.02,0.02,0.07,0.03,0.16,0.03h0.48c0.22,0,0.39-0.01,0.51-0.04
				c0.11-0.02,0.18-0.05,0.22-0.09c0.03-0.04,0.06-0.12,0.09-0.26c0.01-0.05,0.04-0.08,0.08-0.07c0.04,0,0.06,0.03,0.06,0.08
				c0,0.01,0,0.04,0,0.07c-0.02,0.2-0.03,0.38-0.03,0.55c0,0.13,0.01,0.25,0.02,0.38c0,0.04,0.01,0.07,0.01,0.09
				c0,0.05-0.02,0.08-0.06,0.08c-0.04,0-0.07-0.02-0.08-0.07l-0.02-0.09c-0.02-0.14-0.07-0.23-0.15-0.28
				c-0.07-0.05-0.2-0.07-0.38-0.07h-0.68c-0.1,0-0.17,0.01-0.2,0.03c-0.03,0.02-0.05,0.06-0.05,0.12l0,0.1v1.14
				c0,0.17,0.03,0.29,0.09,0.33c0.06,0.04,0.22,0.06,0.48,0.06c0.81,0,1.33-0.18,1.56-0.55c0.02-0.03,0.05-0.05,0.07-0.06
				c0.04,0,0.06,0.03,0.06,0.08C140.28,108.75,140.2,108.91,140.05,109.09z M144.91,105.23c-0.13,0.03-0.21,0.08-0.25,0.16
				c-0.04,0.07-0.06,0.21-0.06,0.41v0.33l-0.01,0.2v2.6c0,0.23-0.01,0.38-0.02,0.43c-0.01,0.05-0.04,0.07-0.09,0.07
				c-0.03,0-0.05-0.01-0.07-0.03l-0.07-0.08l-2.61-2.99l-0.03-0.03c-0.01-0.01-0.03-0.02-0.04-0.02c-0.04,0-0.06,0.05-0.06,0.14v2.1
				l0,0.13l0.01,0.22c0.01,0.14,0.05,0.23,0.11,0.28c0.06,0.05,0.17,0.09,0.33,0.12c0.07,0.01,0.1,0.03,0.1,0.08
				c0,0.04-0.02,0.06-0.06,0.06c-0.03,0-0.06,0-0.09-0.01c-0.02,0-0.11-0.01-0.27-0.02l-0.32-0.02l-0.15,0.01
				c-0.08,0-0.16,0-0.23,0.01c-0.05,0.01-0.09,0.01-0.11,0.01c-0.05,0-0.08-0.02-0.09-0.06c0-0.03,0.03-0.06,0.09-0.07
				c0.17-0.06,0.29-0.14,0.35-0.24c0.06-0.1,0.09-0.26,0.09-0.49v-2.11c0-0.36-0.06-0.64-0.17-0.84c-0.11-0.21-0.28-0.32-0.49-0.35
				c-0.06-0.01-0.08-0.03-0.08-0.07c0-0.04,0.02-0.06,0.07-0.06c0.01,0,0.03,0,0.05,0l0.13,0l0.21,0.01l0.05,0c0.05,0,0.09,0,0.11,0
				c0.05,0,0.1,0.03,0.15,0.09l2.85,3.23c0.05,0.05,0.07,0.08,0.09,0.07c0.02,0,0.03-0.02,0.03-0.06v-1.53l0-0.42l-0.04-0.71
				c-0.02-0.17-0.07-0.3-0.15-0.37c-0.08-0.07-0.23-0.13-0.44-0.16c-0.06-0.01-0.09-0.04-0.09-0.08c0-0.04,0.03-0.06,0.09-0.06
				c0.03,0,0.07,0,0.13,0.01c0.14,0.01,0.33,0.02,0.57,0.02c0.13,0,0.23-0.01,0.31-0.02c0.07-0.01,0.12-0.02,0.15-0.02
				c0.05,0,0.08,0.02,0.09,0.07C144.97,105.19,144.95,105.21,144.91,105.23z M149.31,108.32l-0.01,0.07l-0.07,0.38l-0.01,0.06
				c-0.01,0.05-0.06,0.11-0.15,0.17c-0.48,0.3-1,0.45-1.58,0.45c-0.66,0-1.2-0.2-1.61-0.59c-0.41-0.39-0.61-0.91-0.61-1.56
				c0-0.64,0.21-1.18,0.63-1.61c0.42-0.43,0.95-0.64,1.59-0.64c0.44,0,0.84,0.1,1.2,0.29l0.12,0.07l0.05,0.02l0.05,0.02
				c0.01,0,0.03-0.01,0.05-0.03c0.05-0.03,0.08-0.05,0.09-0.05c0.03,0,0.06,0.04,0.07,0.12l0.1,0.74l0.01,0.08l-0.01,0.03
				c-0.01,0.02-0.03,0.03-0.05,0.03c-0.03,0-0.06-0.04-0.11-0.13c-0.39-0.68-0.91-1.01-1.57-1.01c-0.53,0-0.94,0.16-1.25,0.49
				c-0.3,0.32-0.46,0.77-0.46,1.33c0,0.65,0.17,1.17,0.51,1.58c0.34,0.41,0.77,0.61,1.3,0.61c0.31,0,0.61-0.08,0.91-0.25
				c0.3-0.17,0.51-0.37,0.62-0.6c0.05-0.11,0.09-0.17,0.12-0.17c0.03,0,0.05,0.02,0.05,0.06L149.31,108.32z M152.71,109.09
				c-0.18,0.22-0.41,0.33-0.69,0.33c-0.06,0-0.14,0-0.24-0.01c-0.39-0.04-0.72-0.06-0.98-0.06c-0.36,0-0.62,0.01-0.77,0.04
				c-0.08,0.01-0.13,0.02-0.16,0.02c-0.07,0-0.1-0.02-0.1-0.07c0-0.03,0.03-0.06,0.08-0.07l0.12-0.03c0.15-0.04,0.22-0.19,0.22-0.44
				l0-0.2v-2.62c0-0.29-0.03-0.49-0.1-0.6c-0.07-0.1-0.19-0.15-0.38-0.15c-0.06,0-0.09-0.02-0.09-0.06c0-0.06,0.05-0.09,0.14-0.09
				c0.05,0,0.12,0.01,0.21,0.02c0.3,0.03,0.65,0.05,1.07,0.05c0.25,0,0.47,0,0.67-0.01l0.44-0.02c0.12,0,0.2-0.01,0.22-0.01
				c0.06-0.01,0.1-0.01,0.12-0.01c0.07,0,0.1,0.03,0.1,0.09c0,0.02,0,0.04-0.01,0.07c-0.01,0.03-0.01,0.11-0.02,0.25l-0.01,0.18
				c-0.01,0.12-0.02,0.19-0.03,0.22c-0.01,0.03-0.03,0.04-0.07,0.05c-0.04,0-0.06-0.03-0.06-0.09v-0.08c0-0.07-0.01-0.13-0.04-0.19
				c-0.04-0.09-0.12-0.15-0.24-0.19c-0.12-0.03-0.34-0.05-0.66-0.05h-0.49c-0.13,0-0.21,0.02-0.25,0.05
				c-0.04,0.03-0.06,0.1-0.06,0.21v1.25c0,0.09,0.01,0.15,0.03,0.17c0.02,0.02,0.07,0.03,0.16,0.03h0.48c0.22,0,0.39-0.01,0.51-0.04
				c0.11-0.02,0.18-0.05,0.22-0.09c0.03-0.04,0.06-0.12,0.09-0.26c0.01-0.05,0.04-0.08,0.08-0.07c0.04,0,0.06,0.03,0.06,0.08
				c0,0.01,0,0.04,0,0.07c-0.02,0.2-0.03,0.38-0.03,0.55c0,0.13,0.01,0.25,0.02,0.38c0,0.04,0.01,0.07,0.01,0.09
				c0,0.05-0.02,0.08-0.06,0.08c-0.04,0-0.07-0.02-0.08-0.07l-0.02-0.09c-0.02-0.14-0.07-0.23-0.15-0.28
				c-0.07-0.05-0.2-0.07-0.38-0.07h-0.68c-0.1,0-0.17,0.01-0.2,0.03c-0.03,0.02-0.05,0.06-0.05,0.12l0,0.1v1.14
				c0,0.17,0.03,0.29,0.09,0.33c0.06,0.04,0.22,0.06,0.48,0.06c0.81,0,1.33-0.18,1.56-0.55c0.02-0.03,0.05-0.05,0.07-0.06
				c0.04,0,0.06,0.03,0.06,0.08C152.93,108.75,152.86,108.91,152.71,109.09z M155.86,109.08c-0.28,0.25-0.64,0.37-1.08,0.37
				c-0.16,0-0.33-0.02-0.52-0.07c-0.19-0.04-0.33-0.1-0.42-0.16c-0.04-0.03-0.06-0.05-0.07-0.08c-0.01-0.03-0.03-0.1-0.06-0.22
				c0-0.02-0.03-0.11-0.08-0.28c-0.05-0.19-0.08-0.32-0.08-0.4c0-0.06,0.02-0.09,0.06-0.09c0.04,0,0.07,0.05,0.1,0.15
				c0.07,0.26,0.23,0.47,0.47,0.65c0.24,0.17,0.5,0.26,0.78,0.26c0.28,0,0.52-0.09,0.72-0.25c0.2-0.17,0.3-0.37,0.3-0.61
				c0-0.23-0.09-0.42-0.27-0.58c-0.09-0.08-0.36-0.2-0.81-0.35c-0.46-0.15-0.78-0.33-0.97-0.51c-0.19-0.19-0.29-0.43-0.29-0.73
				c0-0.33,0.12-0.61,0.37-0.82c0.25-0.21,0.57-0.32,0.96-0.32c0.22,0,0.41,0.03,0.56,0.1l0.21,0.09c0.02,0.01,0.04,0.01,0.06,0.01
				c0.02,0,0.05-0.01,0.07-0.03l0.04-0.04c0.01-0.01,0.02-0.01,0.03-0.01c0.05,0,0.08,0.05,0.08,0.15c0,0.03,0.01,0.14,0.04,0.31
				l0.05,0.32c0.01,0.07,0.02,0.11,0.02,0.13c0,0.06-0.02,0.1-0.07,0.1c-0.03,0-0.07-0.05-0.1-0.15c-0.07-0.22-0.22-0.41-0.45-0.55
				c-0.23-0.15-0.48-0.22-0.76-0.22c-0.22,0-0.41,0.07-0.56,0.2c-0.15,0.13-0.22,0.29-0.22,0.49c0,0.17,0.05,0.32,0.15,0.45
				c0.09,0.11,0.18,0.19,0.28,0.23c0.1,0.05,0.35,0.14,0.74,0.27c0.76,0.25,1.14,0.66,1.14,1.23
				C156.28,108.52,156.14,108.84,155.86,109.08z M166.66,93.95c0,0-0.53-0.65-1.34-1.06h-32.44v-1.1h32.46
				c0.8-0.41,1.32-1.05,1.32-1.05c0.59,1.12,2.3,1.61,2.3,1.61S167.25,92.83,166.66,93.95z M174.4,47.76
				c-0.49,0.12-0.82,0.32-0.98,0.6c-0.16,0.28-0.24,0.81-0.24,1.59v1.31l-0.02,0.8V62.2c0,0.91-0.02,1.47-0.06,1.66
				c-0.04,0.2-0.15,0.29-0.34,0.29c-0.12-0.01-0.21-0.04-0.28-0.11l-0.27-0.32l-10.2-11.67l-0.12-0.13
				c-0.05-0.05-0.1-0.07-0.17-0.07c-0.15,0-0.23,0.18-0.23,0.55v8.22l-0.01,0.51l0.04,0.86c0.06,0.53,0.19,0.9,0.41,1.1
				c0.22,0.2,0.64,0.35,1.28,0.45c0.27,0.03,0.4,0.13,0.4,0.31c0,0.16-0.08,0.24-0.25,0.24c-0.11,0-0.23-0.01-0.36-0.02
				c-0.09-0.01-0.44-0.04-1.05-0.07l-1.23-0.06l-0.58,0.02c-0.32,0-0.62,0.02-0.9,0.06c-0.21,0.03-0.36,0.04-0.45,0.04
				c-0.21,0-0.32-0.07-0.34-0.23c-0.01-0.12,0.1-0.22,0.34-0.3c0.68-0.23,1.14-0.55,1.38-0.94c0.24-0.39,0.36-1.02,0.36-1.9v-8.24
				c0-1.4-0.22-2.5-0.67-3.3c-0.44-0.81-1.09-1.26-1.93-1.38c-0.22-0.03-0.33-0.12-0.33-0.27c0-0.15,0.09-0.22,0.27-0.22
				c0.04,0,0.1,0,0.19,0.01l0.5,0.01l0.81,0.03l0.19-0.01c0.19-0.01,0.34-0.01,0.45-0.01c0.2,0,0.4,0.12,0.61,0.35l11.14,12.61
				c0.18,0.2,0.29,0.3,0.34,0.29c0.08-0.01,0.12-0.09,0.13-0.23v-5.99l0.01-1.64l-0.15-2.78c-0.08-0.69-0.28-1.17-0.6-1.46
				c-0.32-0.29-0.89-0.5-1.72-0.64c-0.23-0.04-0.35-0.14-0.35-0.3c0-0.15,0.12-0.23,0.35-0.23c0.1,0,0.27,0.01,0.51,0.03
				c0.56,0.06,1.3,0.09,2.24,0.09c0.5,0,0.9-0.02,1.2-0.07c0.26-0.05,0.45-0.07,0.59-0.07c0.21,0,0.32,0.08,0.34,0.25
				C174.65,47.64,174.57,47.71,174.4,47.76z M189.86,50.44c-0.14,0.01-0.24-0.12-0.29-0.38c-0.1-0.57-0.27-0.94-0.51-1.12
				c-0.24-0.17-0.69-0.26-1.37-0.26h-3.4c-0.36,0-0.58,0.05-0.67,0.15c-0.09,0.1-0.14,0.33-0.14,0.71v11.88l0.01,0.47
				c0.04,0.94,0.57,1.51,1.59,1.68c0.28,0.05,0.42,0.14,0.42,0.27c0,0.17-0.11,0.26-0.34,0.26c-0.1,0-0.29-0.03-0.59-0.07
				c-0.15-0.03-0.52-0.04-1.09-0.04l-0.89-0.01l-0.95,0.01c-0.34,0-0.63,0.01-0.86,0.04c-0.46,0.05-0.73,0.07-0.81,0.07
				c-0.24,0-0.37-0.09-0.37-0.26c0-0.13,0.13-0.2,0.4-0.24c0.62-0.08,1.04-0.25,1.26-0.52c0.22-0.26,0.33-0.73,0.33-1.41V49.68
				l-0.01-0.31c0-0.29-0.04-0.48-0.13-0.56c-0.09-0.08-0.28-0.12-0.59-0.12h-3.21c-0.66,0-1.13,0.13-1.42,0.39
				c-0.3,0.26-0.52,0.76-0.68,1.48c-0.07,0.31-0.18,0.47-0.33,0.46c-0.15-0.01-0.22-0.12-0.22-0.33c0-0.17,0.05-0.48,0.15-0.93
				c0.12-0.58,0.18-1.06,0.18-1.44c0-0.37,0.04-0.61,0.13-0.73c0.09-0.12,0.27-0.17,0.54-0.17h13.04c0.44,0,0.71,0.05,0.81,0.15
				c0.09,0.1,0.14,0.38,0.14,0.86c0,0.48,0.02,0.82,0.06,1.04c0.04,0.27,0.06,0.47,0.07,0.59
				C190.12,50.29,190.03,50.42,189.86,50.44z"/>
		</g>
		<path class="st1" d="M108.49,140.68c-1.77,0-3.46-0.18-5.04-0.53l-87.92-23.46c-0.53-0.19-10.77-4.03-11.25-14.92l0-60.85
			c0-0.13,0.34-10.74,11.18-14.35L104.62,2.8c0.09-0.02,1.65-0.38,3.95-0.38c1.86,0,3.67,0.23,5.38,0.69l89.23,23.8
			c0.41,0.17,10.06,4.33,9.9,14.03v61.24c0,0.04,0.48,10.54-11.16,14.64l-87.36,23.17C114.45,140.01,111.92,140.68,108.49,140.68z
			 M108.57,4.6c-2.03,0-3.41,0.32-3.42,0.32L16.09,28.66c-9.33,3.11-9.62,12.18-9.62,12.28v60.78c0.42,9.4,9.63,12.86,9.72,12.89
			l87.79,23.42c1.37,0.3,2.91,0.46,4.52,0.46c3.13,0,5.49-0.61,5.51-0.62l87.27-23.14c9.97-3.52,9.64-12.13,9.63-12.5l0-61.32
			c0.13-7.89-7.72-11.63-8.5-11.97L113.39,5.22C111.86,4.81,110.24,4.6,108.57,4.6z"/>
		<path class="st1" d="M108.3,136.5c-1.47,0-2.73-0.17-3.75-0.51l-87.51-23.16c-0.14-0.05-8.33-2.99-8.45-11.31V41.05
			c-0.01-0.27-0.24-7.57,10.3-11.08L105.38,7c0.1-0.02,1.74-0.38,3.73-0.38c1.19,0,2.26,0.13,3.19,0.38l88.23,23.51
			c0.1,0.03,8.22,2.51,8.22,10.76l-0.11,60.13c0,0.04,0.3,8.01-7.92,11.07l-87.07,23.42C113.51,135.92,111.01,136.5,108.3,136.5z
			 M109.11,8.26c-1.81,0-3.33,0.33-3.34,0.33l-86.4,22.94c-9.33,3.11-9.14,9.41-9.13,9.47l0,60.5c0.1,7.17,7.22,9.73,7.29,9.75
			l87.5,23.16c0.9,0.3,1.99,0.44,3.28,0.44c2.51,0,4.92-0.55,4.95-0.56l86.97-23.39c7.04-2.62,6.79-9.4,6.78-9.47l0.11-60.17
			c0-7-6.74-9.09-7.03-9.18L111.88,8.59C111.09,8.37,110.16,8.26,109.11,8.26z"/>
	</g>
</g>
</svg>
