<?xml version="1.0" encoding="utf-8"?>
<!-- Generator: Adobe Illustrator 23.0.1, SVG Export Plug-In . SVG Version: 6.00 Build 0)  -->
<svg version="1.1" id="Layer_1" xmlns="http://www.w3.org/2000/svg" xmlns:xlink="http://www.w3.org/1999/xlink" x="0px" y="0px"
	 viewBox="0 0 140 94" style="enable-background:new 0 0 140 94;" xml:space="preserve">
<style type="text/css">
	.st0{fill:#FFFFFF;}
</style>
<g>
	<path class="st0" d="M61.8,70.2c0-0.2-0.1-0.4-0.2-0.5c-0.1-0.1-0.3-0.2-0.5-0.2c-0.1,0-0.1,0-0.2,0c0,0,0,0.1,0,0.1l0,0.1v0.8
		c0,0.1,0,0.1,0,0.1c0,0,0.1,0,0.1,0h0.2c0.2,0,0.3,0,0.4-0.1C61.8,70.5,61.8,70.4,61.8,70.2z"/>
	<path class="st0" d="M47.5,69.5c-0.3,0-0.6,0.1-0.8,0.3c-0.2,0.2-0.3,0.5-0.3,0.9c0,0.4,0.1,0.8,0.4,1c0.2,0.3,0.5,0.4,0.9,0.4
		c0.3,0,0.6-0.1,0.8-0.3c0.2-0.2,0.3-0.5,0.3-0.9c0-0.4-0.1-0.7-0.4-1C48.2,69.6,47.9,69.5,47.5,69.5z"/>
	<path class="st0" d="M51,70.2c0-0.2-0.1-0.4-0.2-0.5c-0.1-0.1-0.3-0.2-0.5-0.2c-0.1,0-0.1,0-0.2,0c0,0,0,0.1,0,0.1l0,0.1v0.8
		c0,0.1,0,0.1,0,0.1c0,0,0.1,0,0.1,0h0.2c0.2,0,0.3,0,0.4-0.1C50.9,70.5,51,70.4,51,70.2z"/>
	<path class="st0" d="M78.9,70.2c0-0.2-0.1-0.4-0.2-0.5c-0.1-0.1-0.3-0.2-0.5-0.2c-0.1,0-0.1,0-0.2,0c0,0,0,0.1,0,0.1l0,0.1v0.8
		c0,0.1,0,0.1,0,0.1c0,0,0.1,0,0.1,0h0.2c0.2,0,0.3,0,0.4-0.1C78.8,70.5,78.9,70.4,78.9,70.2z"/>
	<path class="st0" d="M74.9,71.5c-0.1-0.1-0.3-0.2-0.4-0.4c-0.2-0.2-0.3-0.3-0.4-0.5c-0.1-0.1-0.2-0.2-0.2-0.2
		c-0.1,0-0.2,0.1-0.3,0.2c-0.1,0.1-0.1,0.2-0.1,0.4c0,0.2,0.1,0.4,0.2,0.6c0.2,0.2,0.5,0.4,0.8,0.4c0.3,0,0.5-0.1,0.7-0.2
		c0,0-0.1-0.1-0.1-0.1L74.9,71.5z"/>
	<path class="st0" d="M64.6,70.8L64.3,70l0,0c0,0,0-0.1-0.1-0.1c0,0,0,0,0,0l-0.4,0.9c0,0,0,0.1,0,0.1c0,0,0,0.1,0.1,0.1l0.1,0h0.6
		C64.6,70.9,64.6,70.9,64.6,70.8C64.6,70.9,64.6,70.8,64.6,70.8L64.6,70.8z"/>
	<path class="st0" d="M85.1,49.2c-0.3-0.3-0.7-0.4-1.1-0.4c-0.5,0-0.8,0.2-1.1,0.5c-0.3,0.3-0.4,0.8-0.4,1.4c0,0.7,0.2,1.3,0.5,1.7
		c0.3,0.4,0.7,0.7,1.3,0.7c0.5,0,0.8-0.2,1.1-0.6c0.3-0.4,0.4-0.9,0.4-1.5c0-0.4-0.1-0.7-0.2-1C85.5,49.7,85.3,49.4,85.1,49.2z"/>
	<path class="st0" d="M58.6,58.5c0,0-3.2,0.2-3.3,2.5c0,0,0.3,2.5,4.5,2.1c0,0,3.9-0.3,6-2.4C65.8,60.8,62.3,58.3,58.6,58.5z"/>
	<path class="st0" d="M89.9,41.2c1.2-0.8,1.9-2.1,1.9-3.9c0-1-0.2-1.9-0.6-2.8c-0.4-0.8-0.9-1.5-1.6-2c-0.8-0.6-1.8-0.9-3-0.9
		c-0.8,0-1.4,0.1-1.6,0.3c-0.1,0.1-0.2,0.3-0.2,0.7v8.2c0,0.3,0.2,0.5,0.5,0.7c0.3,0.1,0.6,0.2,1.1,0.3c0.4,0.1,0.8,0.1,1.1,0.1
		C88.4,41.9,89.2,41.6,89.9,41.2z"/>
	<path class="st0" d="M85,24.8c0-2.3-3.3-2.5-3.3-2.5c-3.7-0.2-7.2,2.3-7.2,2.3c2,2.1,6,2.4,6,2.4C84.7,27.3,85,24.8,85,24.8z"/>
	<path class="st0" d="M70.3,25.7c0.9-0.4,1.8-0.8,2.4-1.2c-0.9-0.6-1.8-1.1-2.5-1.6c-0.7,0.5-1.6,1-2.5,1.5
		C68.4,24.9,69.3,25.3,70.3,25.7z"/>
	<path class="st0" d="M23,34.4c0-0.8-0.3-1.4-0.8-1.9c-0.5-0.5-1.2-0.7-2.1-0.7c-0.3,0-0.5,0.1-0.7,0.2c-0.1,0.1-0.2,0.3-0.2,0.6
		l0,0.3V36c0,0.3,0,0.4,0.1,0.5c0.1,0.1,0.2,0.1,0.5,0.1h0.9c0.7,0,1.2-0.2,1.7-0.6C22.8,35.6,23,35.1,23,34.4z"/>
	<path class="st0" d="M40.2,70.2c0-0.2-0.1-0.4-0.2-0.5c-0.1-0.1-0.3-0.2-0.5-0.2c-0.1,0-0.1,0-0.2,0c0,0,0,0.1,0,0.1l0,0.1v0.8
		c0,0.1,0,0.1,0,0.1c0,0,0.1,0,0.1,0h0.2c0.2,0,0.3,0,0.4-0.1C40.2,70.5,40.2,70.4,40.2,70.2z"/>
	<path class="st0" d="M59.9,27c0,0,3.9-0.3,6-2.4c0,0-3.5-2.5-7.2-2.3c0,0-3.2,0.2-3.3,2.5C55.4,24.8,55.7,27.3,59.9,27z"/>
	<path class="st0" d="M88.2,69.7c-0.2-0.2-0.5-0.2-0.8-0.2c-0.2,0-0.4,0-0.4,0.1c0,0-0.1,0.1-0.1,0.2v2.1c0,0.1,0,0.1,0.1,0.2
		c0.1,0,0.2,0.1,0.3,0.1c0.1,0,0.2,0,0.3,0c0.2,0,0.4-0.1,0.6-0.2c0.3-0.2,0.5-0.5,0.5-1c0-0.3,0-0.5-0.1-0.7
		C88.5,70,88.3,69.8,88.2,69.7z"/>
	<path class="st0" d="M81.7,58.5c-3.7-0.2-7.2,2.3-7.2,2.3c2,2.1,6,2.4,6,2.4C84.7,63.5,85,61,85,61C85,58.7,81.7,58.5,81.7,58.5z"
		/>
	<path class="st0" d="M135.9,27.2c-0.3-4.6-3.9-6.2-3.9-6.2L74.1,5.4c-3.5-1.2-6-0.1-6-0.1L12.8,20.2c-6,0.8-7.9,6.2-7.9,6.2v40.9
		c0.3,4.5,5.8,6.9,5.8,6.9l55.8,14.8c2.5,1,7.3,0.1,7.3,0.1L130,74c5.8-1.8,6-6.9,6-6.9L135.9,27.2z M86.5,24.4h21.4
		c0.5-0.3,0.9-0.7,0.9-0.7c0.4,0.7,1.5,1.1,1.5,1.1s-1.1,0.3-1.5,1.1c0,0-0.4-0.4-0.9-0.7H86.5V24.4z M96.9,52.8l0,0.4
		c0,0.1,0,0.1-0.1,0.1c0,0-0.1,0-0.1-0.1l-3.1-3.4c-0.1-0.1-0.1-0.1-0.1-0.1c-0.1,0-0.1,0.1-0.1,0.2l0,0.1v1.3c0,0.7,0,1.2,0.1,1.4
		c0.1,0.3,0.3,0.4,0.7,0.4c0.1,0,0.1,0,0.1,0.1c0,0.1,0,0.1-0.1,0.1c0,0-0.1,0-0.1,0c-0.2,0-0.4,0-0.6,0c-0.2,0-0.4,0-0.6,0
		c-0.1,0-0.1,0-0.2,0c-0.1,0-0.1,0-0.1-0.1c0,0,0-0.1,0.1-0.1c0.2,0,0.3-0.1,0.4-0.3c0.1-0.1,0.1-0.4,0.1-0.6l0-0.8v-1.5
		c0-0.7-0.3-1.1-0.8-1.1c-0.1,0-0.1,0-0.1-0.1c0-0.1,0-0.1,0.1-0.1l0.2,0l0.1,0c0.2,0,0.4,0,0.6,0c0.1,0,0.1,0,0.2,0
		c0.1,0,0.1,0,0.2,0c0,0,0.1,0.1,0.3,0.3l0.2,0.3c0.1,0.1,0.1,0.2,0.2,0.2l1.8,2l0.1,0.1c0.2,0.2,0.3,0.3,0.3,0.3
		c0,0,0.1-0.1,0.1-0.2c0-0.5,0-1,0-1.4c0-0.5-0.1-0.9-0.2-1.1c-0.1-0.2-0.3-0.3-0.6-0.3c-0.1,0-0.1,0-0.1-0.1c0-0.1,0-0.1,0.1-0.1
		c0.1,0,0.2,0,0.4,0c0.1,0,0.2,0,0.3,0c0.2,0,0.4,0,0.7-0.1c0,0,0.1,0,0.1,0c0.1,0,0.1,0,0.1,0.1c0,0.1,0,0.1-0.1,0.1
		c-0.3,0.1-0.4,0.3-0.4,0.8v0.2l0,2.1l0,0.3l0,0.4L96.9,52.8z M86.5,42.3c-0.7,0-1.3-0.1-1.9-0.1c-0.6,0-1.1,0-1.5,0.1
		c-0.2,0-0.3,0-0.5,0c-0.2,0-0.3,0-0.3-0.2c0-0.1,0.1-0.1,0.2-0.2c0.4-0.1,0.6-0.2,0.7-0.4c0.1-0.2,0.2-0.6,0.2-1.2v-7.2
		c0-0.5-0.1-0.9-0.3-1.2c-0.2-0.3-0.5-0.4-0.9-0.4c-0.2,0-0.3-0.1-0.3-0.2c0-0.1,0.1-0.2,0.2-0.2l0.6,0c0.1,0,0.2,0,0.6,0
		c0.5,0,1,0,1.3,0l0.7-0.1c0.3,0,0.7,0,1.1,0c2.2,0,3.8,0.5,4.9,1.6c1,1,1.5,2.3,1.5,3.8c0,1-0.2,1.9-0.7,2.8c-0.4,0.8-1,1.5-1.8,2
		c-1,0.6-2.1,0.9-3.2,0.9C87.1,42.3,86.9,42.3,86.5,42.3z M86.6,50.8c0,0.7-0.2,1.3-0.7,1.8c-0.4,0.5-1,0.7-1.8,0.7
		c-0.7,0-1.3-0.2-1.8-0.6c-0.4-0.4-0.7-1-0.7-1.7c0-0.3,0.1-0.6,0.2-0.9c0.1-0.3,0.3-0.6,0.5-0.8c0.2-0.2,0.5-0.4,0.8-0.6
		c0.3-0.1,0.7-0.2,1.1-0.2c0.7,0,1.3,0.2,1.7,0.6C86.4,49.6,86.6,50.1,86.6,50.8z M96.8,42.2c-0.9,0-1.6,0-2,0.1
		c-0.2,0-0.3,0.1-0.4,0.1c-0.2,0-0.3-0.1-0.3-0.2c0-0.1,0.1-0.2,0.2-0.2l0.3-0.1c0.4-0.1,0.6-0.5,0.6-1.1l0-0.5v-6.8
		c0-0.8-0.1-1.3-0.3-1.5c-0.2-0.3-0.5-0.4-1-0.4c-0.2,0-0.2,0-0.2-0.1c0-0.1,0.1-0.2,0.4-0.2c0.1,0,0.3,0,0.5,0
		c0.8,0.1,1.7,0.1,2.7,0.1c0.6,0,1.2,0,1.7,0l1.1-0.1c0.3,0,0.5,0,0.6,0c0.1,0,0.2,0,0.3,0c0.2,0,0.3,0.1,0.3,0.2c0,0,0,0.1,0,0.2
		c0,0.1,0,0.3-0.1,0.6l0,0.5c0,0.3-0.1,0.5-0.1,0.6c0,0.1-0.1,0.1-0.2,0.1c-0.1,0-0.2-0.1-0.2-0.2V33c0-0.2,0-0.3-0.1-0.5
		c-0.1-0.2-0.3-0.4-0.6-0.5c-0.3-0.1-0.9-0.1-1.7-0.1h-1.3c-0.3,0-0.5,0-0.6,0.1c-0.1,0.1-0.1,0.3-0.1,0.5v3.2c0,0.2,0,0.4,0.1,0.4
		s0.2,0.1,0.4,0.1h1.2c0.6,0,1,0,1.3-0.1c0.3-0.1,0.5-0.1,0.6-0.2c0.1-0.1,0.2-0.3,0.2-0.7c0-0.1,0.1-0.2,0.2-0.2
		c0.1,0,0.2,0.1,0.2,0.2c0,0,0,0.1,0,0.2c0,0.5-0.1,1-0.1,1.4c0,0.3,0,0.6,0,1c0,0.1,0,0.2,0,0.2c0,0.1-0.1,0.2-0.2,0.2
		c-0.1,0-0.2-0.1-0.2-0.2l0-0.2c-0.1-0.4-0.2-0.6-0.4-0.7c-0.2-0.1-0.5-0.2-1-0.2h-1.8c-0.3,0-0.4,0-0.5,0.1
		c-0.1,0.1-0.1,0.2-0.1,0.3l0,0.3v2.9c0,0.5,0.1,0.7,0.2,0.8c0.2,0.1,0.6,0.2,1.2,0.2c2.1,0,3.4-0.5,4-1.4c0.1-0.1,0.1-0.1,0.2-0.1
		c0.1,0,0.1,0.1,0.1,0.2c0,0.3-0.2,0.8-0.6,1.2c-0.5,0.6-1.1,0.9-1.8,0.9c-0.2,0-0.4,0-0.6,0C98.3,42.2,97.5,42.2,96.8,42.2z
		 M54.6,23.7c0,0,1-2.8,5.9-2.2c0,0,3,0.4,5.9,2.4c0,0,0.5,0.3,1.1-0.1l2.3-1.2c-0.7-0.4-1.2-0.7-1.2-0.7l1.6,0.4l0.1,0.1l0.1-0.1
		l1.6-0.4c0,0-0.5,0.3-1.2,0.7l2.3,1.2c0.7,0.4,1.1,0.1,1.1,0.1c2.9-2,5.9-2.4,5.9-2.4c4.9-0.7,5.9,2.2,5.9,2.2
		c1.1,3.2-2.5,3.9-2.5,3.9c-4.6,0.8-7.8-1.4-7.8-1.4c-0.5-0.3-1.2-0.8-2-1.2c-0.1,0.1-1.1,0.5-2.4,1c3,1,6.2,1.5,6.2,1.5
		c-1.9,0.4-4.7-0.4-6.9-1.2c-2.2,0.8-5.2,1.7-7.1,1.3c0,0,3.4-0.5,6.4-1.5c-1.3-0.5-2.3-1-2.5-1.1c-0.8,0.5-1.6,1-2.1,1.3
		c0,0-3.2,2.3-7.8,1.4C57.1,27.6,53.5,26.8,54.6,23.7z M72.5,48.9l-0.2,0c-0.1,0-0.1,0-0.1-0.1c0-0.1,0-0.1,0.1-0.1c0,0,0.1,0,0.1,0
		c0,0,0.1,0,0.1,0l0.1,0c0.1,0,0.2,0,0.3,0c0.1,0,0.3,0,0.5,0c0.2,0,0.4,0,0.5,0c0.1,0,0.2,0,0.2,0.1c0,0.1,0,0.1-0.1,0.1
		c-0.2,0-0.3,0.2-0.3,0.5v2.9c0,0.4,0.1,0.7,0.2,0.7c0.1,0,0.2,0,0.3,0c0.8,0,1.3-0.2,1.6-0.7c0.1-0.1,0.2-0.2,0.2-0.2
		c0,0,0.1,0,0.1,0.1c0,0.3-0.1,0.5-0.3,0.8c-0.2,0.2-0.4,0.3-0.7,0.3c-0.1,0-0.2,0-0.3,0c0,0-0.2,0-0.4,0l-0.4,0c-0.1,0-0.3,0-0.4,0
		c-0.3,0-0.5,0-0.8,0.1c-0.1,0-0.2,0-0.2,0c-0.1,0-0.1,0-0.1-0.1c0,0,0-0.1,0.1-0.1c0.1,0,0.2-0.1,0.3-0.2c0.1-0.1,0.1-0.3,0.1-0.6
		v-2.8C72.9,49.1,72.8,48.9,72.5,48.9z M72.7,34.4L72.7,34.4c-0.1-0.1-0.1-0.1-0.2-0.1c-0.1,0-0.2,0.1-0.2,0.4V40l0,0.3l0,0.6
		c0,0.4,0.1,0.6,0.3,0.7c0.1,0.1,0.4,0.2,0.8,0.3c0.2,0,0.3,0.1,0.3,0.2c0,0.1-0.1,0.2-0.2,0.2c-0.1,0-0.2,0-0.2,0
		c-0.1,0-0.3,0-0.7,0l-0.8,0l-0.4,0c-0.2,0-0.4,0-0.6,0c-0.1,0-0.2,0-0.3,0c-0.1,0-0.2,0-0.2-0.1c0-0.1,0.1-0.1,0.2-0.2
		c0.4-0.2,0.7-0.4,0.9-0.6c0.2-0.3,0.2-0.7,0.2-1.3v-5.4c0-0.9-0.1-1.6-0.4-2.2c-0.3-0.5-0.7-0.8-1.3-0.9c-0.1,0-0.2-0.1-0.2-0.2
		c0-0.1,0.1-0.1,0.2-0.1c0,0,0.1,0,0.1,0l0.3,0l0.5,0l0.1,0c0.1,0,0.2,0,0.3,0c0.1,0,0.3,0.1,0.4,0.2l7.4,8.3
		c0.1,0.1,0.2,0.2,0.2,0.2c0.1,0,0.1-0.1,0.1-0.2v-4l0-1.1l-0.1-1.8c-0.1-0.5-0.2-0.8-0.4-1c-0.2-0.2-0.6-0.3-1.1-0.4
		c-0.2,0-0.2-0.1-0.2-0.2c0-0.1,0.1-0.1,0.2-0.1c0.1,0,0.2,0,0.3,0c0.4,0,0.9,0.1,1.5,0.1c0.3,0,0.6,0,0.8,0c0.2,0,0.3,0,0.4,0
		c0.1,0,0.2,0.1,0.2,0.2c0,0.1,0,0.1-0.2,0.2c-0.3,0.1-0.5,0.2-0.6,0.4c-0.1,0.2-0.2,0.5-0.2,1v0.9l0,0.5V41c0,0.6,0,1,0,1.1
		c0,0.1-0.1,0.2-0.2,0.2c-0.1,0-0.1,0-0.2-0.1l-0.2-0.2L72.7,34.4z M64.7,52.7c0,0.3,0.3,0.4,0.7,0.4c0.1,0,0.1,0,0.1,0.1
		c0,0.1-0.1,0.1-0.2,0.1c-0.1,0-0.1,0-0.2,0l-0.5,0c-0.1,0-0.2,0-0.4,0c-0.4,0-0.7,0-0.8,0c-0.1,0-0.2,0-0.2,0c-0.1,0-0.1,0-0.1-0.1
		c0,0,0-0.1,0.1-0.1c0.3,0,0.4-0.1,0.5-0.2c0.1-0.1,0.1-0.3,0.1-0.6v-0.6c0-0.2,0-0.3-0.1-0.5c-0.1-0.2-0.2-0.4-0.4-0.7l-0.5-1
		c-0.2-0.4-0.4-0.6-0.7-0.6c-0.1,0-0.1,0-0.1-0.1c0-0.1,0-0.1,0.1-0.1c0.1,0,0.1,0,0.3,0c0.2,0,0.5,0,0.7,0c0.2,0,0.4,0,0.6,0
		c0.1,0,0.2,0,0.3,0c0.1,0,0.1,0,0.1,0.1c0,0,0,0.1-0.1,0.1c-0.2,0-0.3,0.1-0.3,0.2c0,0.1,0.1,0.3,0.2,0.6l0.3,0.5
		c0.1,0.2,0.2,0.3,0.2,0.4c0.1,0.2,0.2,0.2,0.2,0.2c0.1,0,0.2-0.1,0.3-0.3c0-0.1,0.1-0.2,0.2-0.4c0.2-0.4,0.4-0.7,0.4-0.8
		c0-0.1-0.1-0.2-0.2-0.3c-0.1-0.1-0.2-0.1-0.4-0.1c-0.1,0-0.1,0-0.1-0.1c0-0.1,0-0.1,0.1-0.1c0.1,0,0.1,0,0.2,0l0.2,0
		c0.1,0,0.2,0,0.3,0c0.1,0,0.2,0,0.2,0l0.3,0c0.1,0,0.2,0,0.3,0c0.1,0,0.1,0,0.1,0.1c0,0,0,0.1-0.1,0.1c-0.2,0-0.3,0.1-0.4,0.2
		c-0.1,0.1-0.2,0.3-0.4,0.6c-0.3,0.6-0.6,1-0.8,1.4c0,0.1-0.1,0.1-0.1,0.2c0,0,0,0.1,0,0.2v1L64.7,52.7z M64.2,42.2
		c-0.9,0-1.6,0-2,0.1c-0.2,0-0.3,0.1-0.4,0.1c-0.2,0-0.3-0.1-0.3-0.2c0-0.1,0.1-0.2,0.2-0.2l0.3-0.1c0.4-0.1,0.6-0.5,0.6-1.1l0-0.5
		v-6.8c0-0.8-0.1-1.3-0.3-1.5c-0.2-0.3-0.5-0.4-1-0.4c-0.2,0-0.2,0-0.2-0.1c0-0.1,0.1-0.2,0.4-0.2c0.1,0,0.3,0,0.5,0
		c0.8,0.1,1.7,0.1,2.7,0.1c0.6,0,1.2,0,1.7,0l1.1-0.1c0.3,0,0.5,0,0.6,0c0.1,0,0.3,0,0.3,0c0.2,0,0.3,0.1,0.3,0.2c0,0,0,0.1,0,0.2
		c0,0.1,0,0.3-0.1,0.6l0,0.5c0,0.3-0.1,0.5-0.1,0.6c0,0.1-0.1,0.1-0.2,0.1c-0.1,0-0.2-0.1-0.2-0.2V33c0-0.2,0-0.3-0.1-0.5
		c-0.1-0.2-0.3-0.4-0.6-0.5c-0.3-0.1-0.9-0.1-1.7-0.1h-1.3c-0.3,0-0.5,0-0.6,0.1c-0.1,0.1-0.1,0.3-0.1,0.5v3.2c0,0.2,0,0.4,0.1,0.4
		c0,0.1,0.2,0.1,0.4,0.1h1.2c0.6,0,1,0,1.3-0.1c0.3-0.1,0.5-0.1,0.6-0.2c0.1-0.1,0.2-0.3,0.2-0.7c0-0.1,0.1-0.2,0.2-0.2
		c0.1,0,0.2,0.1,0.2,0.2c0,0,0,0.1,0,0.2c0,0.5-0.1,1-0.1,1.4c0,0.3,0,0.6,0,1c0,0.1,0,0.2,0,0.2c0,0.1-0.1,0.2-0.2,0.2
		c-0.1,0-0.2-0.1-0.2-0.2l0-0.2c-0.1-0.4-0.2-0.6-0.4-0.7c-0.2-0.1-0.5-0.2-1-0.2h-1.8c-0.3,0-0.4,0-0.5,0.1
		c-0.1,0.1-0.1,0.2-0.1,0.3l0,0.3v2.9c0,0.5,0.1,0.7,0.2,0.8c0.2,0.1,0.6,0.2,1.2,0.2c2.1,0,3.4-0.5,4-1.4c0.1-0.1,0.1-0.1,0.2-0.1
		c0.1,0,0.1,0.1,0.1,0.2c0,0.3-0.2,0.8-0.6,1.2c-0.5,0.6-1.1,0.9-1.8,0.9c-0.2,0-0.4,0-0.6,0C65.7,42.2,64.9,42.2,64.2,42.2z
		 M53.4,49c-0.1-0.1-0.3-0.2-0.5-0.2c-0.1,0-0.1,0-0.1-0.1c0-0.1,0-0.1,0.1-0.1c0,0,0.1,0,0.1,0c0,0,0.1,0,0.2,0l0.3,0l1.3,0
		c0.7,0,1.2,0,1.4,0c0,0,0,0,0,0c0.1,0,0.1,0,0.1,0.1c0,0.1,0,0.1,0,0.3c0,0.2,0,0.3,0,0.4c0,0.2,0,0.3-0.1,0.3c0,0-0.1,0-0.1-0.2
		c0-0.2-0.1-0.4-0.2-0.5c-0.2-0.1-0.4-0.2-0.8-0.2h-0.4l-0.2,0c-0.1,0-0.2,0.2-0.2,0.3l0,0.1v0.7c0,0.2,0,0.3,0,0.4
		c0,0.1,0.1,0.1,0.2,0.1l0.1,0l0.1,0h0.3c0.2,0,0.4-0.1,0.5-0.4l0.1-0.2c0,0,0.1-0.1,0.1-0.1c0,0,0.1,0,0.1,0.1c0,0,0,0.1,0,0.2
		c0,0.1,0,0.1,0,0.1c0,0.1,0,0.2,0,0.5c0,0.2,0,0.3,0,0.5l0,0.2c0,0,0,0.1,0,0.1c0,0,0,0-0.1,0c-0.1,0-0.1,0-0.1-0.1
		c0-0.2-0.1-0.3-0.2-0.4C55.5,51,55.5,51,55.4,51c-0.1,0-0.2,0-0.5,0h-0.2c-0.1,0-0.2,0-0.2,0c0,0-0.1,0.1-0.1,0.2
		c0,0.1,0,0.3,0,0.5V52c0,0.3,0,0.5,0.1,0.7c0,0.1,0.1,0.2,0.1,0.2c0.1,0,0.1,0.1,0.2,0.1c0.9,0,1.5-0.3,1.8-0.8c0,0,0,0,0,0
		c0,0,0,0,0.1,0c0,0,0,0,0,0.1c0,0.2-0.1,0.4-0.2,0.6c-0.1,0.2-0.2,0.3-0.4,0.4c-0.1,0.1-0.3,0.1-0.6,0.1c-0.1,0-0.3,0-0.5,0l-0.4,0
		c-0.1,0-0.3,0-0.6,0c-0.2,0-0.4,0-0.8,0c-0.1,0-0.2,0-0.2,0c-0.1,0-0.1,0-0.1-0.1c0,0,0-0.1,0.1-0.1c0.1,0,0.2-0.1,0.3-0.2
		c0-0.1,0.1-0.2,0.1-0.3c0-0.1,0-0.3,0-0.5v-2.7C53.6,49.2,53.5,49.1,53.4,49z M55.2,42.2c-0.7,0-1.2,0-1.6,0.1c-0.2,0-0.3,0-0.4,0
		c-0.1,0-0.2,0-0.2-0.1c0-0.1,0.1-0.1,0.2-0.2c0.4-0.1,0.6-0.3,0.7-0.5c0.1-0.2,0.2-0.6,0.2-1.1l0-0.4v-7.2c0-0.7-0.3-1.1-0.9-1.2
		l-0.4-0.1c-0.1,0-0.2-0.1-0.2-0.2c0-0.1,0.1-0.2,0.3-0.2c0.1,0,0.3,0,0.5,0c0.4,0,0.8,0,1.2,0c0.5,0,0.9,0,1.3,0c0.2,0,0.3,0,0.3,0
		c0.1,0,0.2,0,0.2,0.1c0,0.1-0.1,0.2-0.2,0.2L56,31.7c-0.5,0.1-0.7,0.6-0.7,1.4v7l0,0.3c0,0.6,0.1,1,0.2,1.1
		c0.1,0.1,0.5,0.2,1.2,0.2c1,0,1.9-0.1,2.6-0.4c0.7-0.2,1.2-0.5,1.4-0.9c0.1-0.1,0.1-0.2,0.2-0.2c0.1,0,0.1,0.1,0.1,0.2
		c0,0.4-0.2,0.7-0.5,1.2c-0.5,0.6-1.2,0.9-2.2,0.9c-0.2,0-0.4,0-0.6,0l-0.9-0.1C56.3,42.2,55.8,42.2,55.2,42.2z M31.6,23.7
		c0,0,0.4,0.4,0.9,0.7h21.4v0.7H32.4c-0.5,0.3-0.9,0.7-0.9,0.7c-0.4-0.7-1.5-1.1-1.5-1.1S31.2,24.4,31.6,23.7z M49.8,32.5
		c-0.6-0.5-1.4-0.8-2.3-0.8c-0.2,0-0.4,0-0.4,0.1C47,31.9,47,32.1,47,32.3l0,0.2v6.7l0,0.8l0,0.7c0.1,0.6,0.3,1,0.7,1.1
		c0.3,0.1,0.5,0.1,0.7,0.1c0.2,0,0.2,0,0.2,0.1c0,0.1-0.1,0.2-0.3,0.2c-0.1,0-0.3,0-0.5,0c-0.2,0-0.4,0-0.8,0l-0.6,0l-0.6,0
		c-0.3,0-0.6,0-0.7,0c-0.2,0-0.4,0-0.5,0c-0.1,0-0.2-0.1-0.2-0.2c0-0.1,0.1-0.2,0.3-0.2c0.4-0.1,0.7-0.3,0.9-0.7
		c0.2-0.4,0.2-1.1,0.2-2.2v-4.8c0-1.1-0.1-1.8-0.2-2.1c-0.1-0.3-0.5-0.5-1-0.5c-0.1,0-0.2-0.1-0.2-0.2c0-0.1,0.1-0.2,0.3-0.2
		c0.1,0,0.2,0,0.4,0c0.3,0,0.6,0.1,0.8,0.1c0.3,0,0.8,0,1.5-0.1c0.3,0,0.6,0,0.8,0c1.1,0,2,0.3,2.7,0.8c0.7,0.5,1,1.2,1,2.1
		c0,1-0.4,1.9-1.3,2.5c-0.6,0.4-1.3,0.7-2,0.7c-0.3,0-0.6,0-0.9-0.1c-0.3-0.1-0.4-0.2-0.4-0.2c0-0.1,0.1-0.1,0.2-0.1
		c0,0,0.1,0,0.2,0c0.1,0,0.3,0.1,0.6,0.1c0.8,0,1.4-0.2,1.8-0.6c0.5-0.4,0.7-1,0.7-1.7C50.7,33.7,50.4,33.1,49.8,32.5z M42.2,38.2
		c-0.2-0.2-0.9-0.5-2.1-0.9c-1.2-0.4-2-0.8-2.5-1.3c-0.5-0.5-0.7-1.1-0.7-1.9c0-0.9,0.3-1.6,1-2.1c0.6-0.5,1.5-0.8,2.5-0.8
		c0.6,0,1.1,0.1,1.4,0.2l0.6,0.2c0,0,0.1,0,0.1,0c0.1,0,0.1,0,0.2-0.1l0.1-0.1c0,0,0,0,0.1,0c0.1,0,0.2,0.1,0.2,0.4
		c0,0.1,0,0.4,0.1,0.8l0.1,0.8c0,0.2,0,0.3,0,0.3c0,0.2-0.1,0.2-0.2,0.2c-0.1,0-0.2-0.1-0.3-0.4c-0.2-0.6-0.6-1.1-1.2-1.4
		c-0.6-0.4-1.2-0.6-2-0.6c-0.6,0-1.1,0.2-1.4,0.5c-0.4,0.3-0.6,0.8-0.6,1.3c0,0.4,0.1,0.8,0.4,1.2c0.2,0.3,0.5,0.5,0.7,0.6
		c0.3,0.1,0.9,0.4,1.9,0.7c2,0.6,3,1.7,3,3.2c0,1-0.4,1.8-1.1,2.4c-0.7,0.6-1.7,1-2.8,1c-0.4,0-0.9-0.1-1.4-0.2
		c-0.5-0.1-0.9-0.3-1.1-0.4c-0.1-0.1-0.2-0.1-0.2-0.2c0-0.1-0.1-0.3-0.1-0.6c0,0-0.1-0.3-0.2-0.7c-0.1-0.5-0.2-0.8-0.2-1
		c0-0.2,0.1-0.2,0.2-0.2c0.1,0,0.2,0.1,0.3,0.4c0.2,0.7,0.6,1.2,1.2,1.7c0.6,0.4,1.3,0.7,2,0.7c0.7,0,1.4-0.2,1.9-0.6
		c0.5-0.4,0.8-1,0.8-1.6C42.9,39.1,42.7,38.6,42.2,38.2z M43,50c0.2-0.4,0.4-0.6,0.6-0.9c0.4-0.4,0.9-0.6,1.5-0.6
		c0.4,0,0.8,0.1,1.1,0.3l0.2,0.1c0,0,0.1,0,0.1,0c0,0,0.1,0,0.1-0.1l0.1-0.1c0,0,0,0,0.1,0c0.1,0,0.1,0.1,0.1,0.2l0,0.2v0.3l0,0.3
		l0,0.2c0,0.1,0,0.1,0,0.2c0,0.1,0,0.1-0.1,0.1c0,0-0.1,0-0.1-0.1c0-0.1-0.1-0.2-0.2-0.4c-0.1-0.2-0.2-0.3-0.3-0.4
		c-0.4-0.4-0.8-0.6-1.3-0.6c-0.4,0-0.8,0.2-1,0.5c-0.3,0.4-0.4,0.8-0.4,1.4c0,0.7,0.2,1.3,0.7,1.8c0.3,0.3,0.7,0.5,1.1,0.5
		c0.2,0,0.5-0.1,0.7-0.2c0.3-0.1,0.5-0.2,0.6-0.4l0.2-0.2c0,0,0.1-0.1,0.1-0.1c0,0,0.1,0,0.1,0.1c0,0.1-0.1,0.2-0.3,0.4
		c-0.5,0.5-1,0.8-1.7,0.8c-0.7,0-1.2-0.2-1.6-0.6c-0.4-0.4-0.6-1-0.6-1.7C42.8,50.7,42.9,50.3,43,50z M26.6,42.3
		c-0.2,0.1-0.5,0.1-0.8,0.1c-0.5,0-0.9-0.1-1.3-0.4c-0.4-0.3-0.8-0.7-1.2-1.3l-2-3l-0.1-0.2c-0.1-0.2-0.3-0.3-0.6-0.3h-1.1l-0.2,0
		c-0.1,0-0.1,0.1-0.1,0.3v2.5l0,0.3c0,0.5,0,0.8,0.1,0.9c0,0.2,0.2,0.3,0.3,0.5c0.2,0.2,0.6,0.3,1.1,0.3c0.2,0,0.3,0.1,0.3,0.2
		c0,0.1-0.1,0.2-0.3,0.2c-0.1,0-0.2,0-0.5,0c-0.2,0-0.6,0-1,0l-0.8,0l-0.4,0c-0.2,0-0.4,0-0.7,0c-0.2,0-0.4,0-0.4,0
		c-0.1,0-0.2-0.1-0.2-0.2c0-0.1,0.1-0.1,0.2-0.2c0.4-0.1,0.7-0.3,0.8-0.6c0.1-0.3,0.2-0.9,0.2-1.8v-5.7l0-0.8c0-0.8-0.3-1.3-0.9-1.4
		l-0.4-0.1c-0.2,0-0.3-0.1-0.3-0.2c0-0.1,0.1-0.2,0.3-0.2c0,0,0.2,0,0.6,0c0.2,0,0.4,0,0.7,0c0.2,0,0.7,0,1.3-0.1c0.4,0,0.8,0,1.1,0
		c1.2,0,2.1,0.2,2.8,0.7c0.6,0.5,0.9,1.1,0.9,2.1c0,1.2-0.7,2.1-2,2.8l2.2,3.3l0.3,0.4c0.7,1,1.3,1.5,1.9,1.6l0.3,0
		c0.1,0,0.1,0,0.1,0.1C26.9,42.1,26.8,42.2,26.6,42.3z M27.9,42.3c-0.2,0-0.3-0.1-0.3-0.2c0-0.1,0.1-0.2,0.2-0.2l0.3-0.1
		c0.4-0.1,0.6-0.5,0.6-1.1l0-0.5v-6.8c0-0.8-0.1-1.3-0.3-1.5c-0.2-0.3-0.5-0.4-1-0.4c-0.2,0-0.2,0-0.2-0.1c0-0.1,0.1-0.2,0.4-0.2
		c0.1,0,0.3,0,0.5,0c0.8,0.1,1.7,0.1,2.7,0.1c0.6,0,1.2,0,1.7,0l1.1-0.1c0.3,0,0.5,0,0.6,0c0.1,0,0.3,0,0.3,0c0.2,0,0.3,0.1,0.3,0.2
		c0,0,0,0.1,0,0.2c0,0.1,0,0.3-0.1,0.6l0,0.5c0,0.3-0.1,0.5-0.1,0.6c0,0.1-0.1,0.1-0.2,0.1c-0.1,0-0.2-0.1-0.2-0.2V33
		c0-0.2,0-0.3-0.1-0.5c-0.1-0.2-0.3-0.4-0.6-0.5c-0.3-0.1-0.9-0.1-1.7-0.1h-1.3c-0.3,0-0.5,0-0.6,0.1c-0.1,0.1-0.1,0.3-0.1,0.5v3.2
		c0,0.2,0,0.4,0.1,0.4c0,0.1,0.2,0.1,0.4,0.1h1.2c0.6,0,1,0,1.3-0.1c0.3-0.1,0.5-0.1,0.6-0.2c0.1-0.1,0.2-0.3,0.2-0.7
		c0-0.1,0.1-0.2,0.2-0.2c0.1,0,0.2,0.1,0.2,0.2c0,0,0,0.1,0,0.2c0,0.5-0.1,1-0.1,1.4c0,0.3,0,0.6,0,1c0,0.1,0,0.2,0,0.2
		c0,0.1-0.1,0.2-0.2,0.2c-0.1,0-0.2-0.1-0.2-0.2l0-0.2c-0.1-0.4-0.2-0.6-0.4-0.7c-0.2-0.1-0.5-0.2-1-0.2h-1.8c-0.3,0-0.4,0-0.5,0.1
		C30,37.1,30,37.2,30,37.4l0,0.3v2.9c0,0.5,0.1,0.7,0.2,0.8c0.2,0.1,0.6,0.2,1.2,0.2c2.1,0,3.4-0.5,4-1.4c0.1-0.1,0.1-0.1,0.2-0.1
		c0.1,0,0.1,0.1,0.1,0.2c0,0.3-0.2,0.8-0.6,1.2c-0.5,0.6-1.1,0.9-1.8,0.9c-0.2,0-0.4,0-0.6,0c-1-0.1-1.9-0.1-2.5-0.1
		c-0.9,0-1.6,0-2,0.1C28.2,42.3,28,42.3,27.9,42.3z M31.6,62c-0.4-0.7-1.5-1.1-1.5-1.1s1.1-0.3,1.5-1.1c0,0,0.4,0.4,0.9,0.7h21.4
		v0.7H32.4C31.9,61.6,31.6,62,31.6,62z M41.1,72.2c-0.1,0-0.1,0-0.2,0c-0.1,0-0.2,0-0.3-0.1c-0.1-0.1-0.2-0.2-0.3-0.3L39.8,71l0,0
		c0-0.1-0.1-0.1-0.2-0.1h-0.3l0,0c0,0,0,0,0,0.1v0.6l0,0.1c0,0.1,0,0.2,0,0.2c0,0,0,0.1,0.1,0.1c0.1,0,0.1,0.1,0.3,0.1
		c0,0,0.1,0,0.1,0c0,0,0,0-0.1,0c0,0-0.1,0-0.1,0c-0.1,0-0.1,0-0.3,0l-0.2,0l-0.1,0c0,0-0.1,0-0.2,0c-0.1,0-0.1,0-0.1,0
		c0,0-0.1,0-0.1,0c0,0,0,0,0.1,0c0.1,0,0.2-0.1,0.2-0.1c0-0.1,0.1-0.2,0.1-0.5V70l0-0.2c0-0.2-0.1-0.3-0.2-0.4l-0.1,0
		c0,0-0.1,0-0.1,0c0,0,0,0,0.1,0c0,0,0.1,0,0.1,0c0,0,0.1,0,0.2,0c0.1,0,0.2,0,0.3,0c0.1,0,0.2,0,0.3,0c0.3,0,0.5,0.1,0.7,0.2
		c0.2,0.1,0.2,0.3,0.2,0.5c0,0.3-0.2,0.5-0.5,0.7l0.6,0.8l0.1,0.1C40.8,72,41,72.1,41.1,72.2L41.1,72.2
		C41.2,72.1,41.2,72.1,41.1,72.2C41.2,72.2,41.2,72.2,41.1,72.2z M43.4,72c-0.1,0.1-0.3,0.2-0.5,0.2c0,0-0.1,0-0.2,0
		c-0.3,0-0.5,0-0.6,0c-0.2,0-0.4,0-0.5,0c-0.1,0-0.1,0-0.1,0c0,0-0.1,0-0.1,0c0,0,0,0,0.1,0l0.1,0c0.1,0,0.1-0.1,0.1-0.3l0-0.1v-1.7
		c0-0.2,0-0.3-0.1-0.4c0-0.1-0.1-0.1-0.3-0.1c0,0-0.1,0-0.1,0c0,0,0-0.1,0.1-0.1c0,0,0.1,0,0.1,0c0.2,0,0.4,0,0.7,0
		c0.2,0,0.3,0,0.4,0l0.3,0c0.1,0,0.1,0,0.1,0c0,0,0.1,0,0.1,0c0,0,0.1,0,0.1,0.1c0,0,0,0,0,0c0,0,0,0.1,0,0.2l0,0.1
		c0,0.1,0,0.1,0,0.1c0,0,0,0,0,0c0,0,0,0,0-0.1v-0.1c0,0,0-0.1,0-0.1c0-0.1-0.1-0.1-0.2-0.1c-0.1,0-0.2,0-0.4,0h-0.3
		c-0.1,0-0.1,0-0.2,0c0,0,0,0.1,0,0.1v0.8c0,0.1,0,0.1,0,0.1c0,0,0,0,0.1,0h0.3c0.1,0,0.3,0,0.3,0c0.1,0,0.1,0,0.1-0.1
		c0,0,0-0.1,0.1-0.2c0,0,0-0.1,0.1,0c0,0,0,0,0,0.1c0,0,0,0,0,0c0,0.1,0,0.3,0,0.4c0,0.1,0,0.2,0,0.2c0,0,0,0,0,0.1c0,0,0,0.1,0,0.1
		c0,0,0,0-0.1,0l0-0.1c0-0.1,0-0.2-0.1-0.2c0,0-0.1,0-0.2,0h-0.5c-0.1,0-0.1,0-0.1,0c0,0,0,0,0,0.1l0,0.1v0.8c0,0.1,0,0.2,0.1,0.2
		c0,0,0.1,0,0.3,0c0.5,0,0.9-0.1,1-0.4c0,0,0,0,0,0c0,0,0,0,0,0.1C43.5,71.8,43.4,71.9,43.4,72z M45.4,72c-0.2,0.2-0.4,0.2-0.7,0.2
		c-0.1,0-0.2,0-0.3,0c-0.1,0-0.2-0.1-0.3-0.1c0,0,0,0,0-0.1c0,0,0-0.1,0-0.1c0,0,0-0.1-0.1-0.2c0-0.1-0.1-0.2-0.1-0.3
		c0,0,0-0.1,0-0.1c0,0,0,0,0.1,0.1c0,0.2,0.2,0.3,0.3,0.4c0.2,0.1,0.3,0.2,0.5,0.2c0.2,0,0.3-0.1,0.5-0.2c0.1-0.1,0.2-0.2,0.2-0.4
		c0-0.2-0.1-0.3-0.2-0.4c-0.1-0.1-0.2-0.1-0.5-0.2c-0.3-0.1-0.5-0.2-0.6-0.3C44,70.4,44,70.3,44,70.1c0-0.2,0.1-0.4,0.2-0.5
		c0.2-0.1,0.4-0.2,0.6-0.2c0.1,0,0.3,0,0.4,0.1l0.1,0.1c0,0,0,0,0,0c0,0,0,0,0,0l0,0c0,0,0,0,0,0c0,0,0.1,0,0.1,0.1c0,0,0,0.1,0,0.2
		l0,0.2c0,0,0,0.1,0,0.1c0,0,0,0.1,0,0.1c0,0,0,0-0.1-0.1c0-0.1-0.1-0.3-0.3-0.4c-0.2-0.1-0.3-0.1-0.5-0.1c-0.1,0-0.3,0-0.4,0.1
		c-0.1,0.1-0.1,0.2-0.1,0.3c0,0.1,0,0.2,0.1,0.3c0.1,0.1,0.1,0.1,0.2,0.2c0.1,0,0.2,0.1,0.5,0.2c0.5,0.2,0.8,0.4,0.8,0.8
		C45.7,71.6,45.6,71.8,45.4,72z M48.7,71.8c-0.3,0.3-0.6,0.4-1.1,0.4c-0.4,0-0.8-0.1-1.1-0.4c-0.3-0.3-0.4-0.6-0.4-1.1
		c0-0.2,0-0.4,0.1-0.6c0.1-0.2,0.2-0.3,0.3-0.5c0.1-0.1,0.3-0.2,0.5-0.3c0.2-0.1,0.4-0.1,0.6-0.1c0.4,0,0.8,0.1,1.1,0.4
		c0.3,0.3,0.4,0.6,0.4,1C49.1,71.2,48.9,71.5,48.7,71.8z M51.9,72.2c-0.1,0-0.1,0-0.2,0c-0.1,0-0.2,0-0.3-0.1
		c-0.1-0.1-0.2-0.2-0.3-0.3L50.5,71l0,0c0-0.1-0.1-0.1-0.2-0.1h-0.3l0,0c0,0,0,0,0,0.1v0.6l0,0.1c0,0.1,0,0.2,0,0.2
		c0,0,0,0.1,0.1,0.1c0.1,0,0.1,0.1,0.3,0.1c0,0,0.1,0,0.1,0c0,0,0,0-0.1,0c0,0-0.1,0-0.1,0c-0.1,0-0.1,0-0.3,0l-0.2,0l-0.1,0
		c0,0-0.1,0-0.2,0c-0.1,0-0.1,0-0.1,0c0,0-0.1,0-0.1,0c0,0,0,0,0.1,0c0.1,0,0.2-0.1,0.2-0.1c0-0.1,0.1-0.2,0.1-0.5V70l0-0.2
		c0-0.2-0.1-0.3-0.2-0.4l-0.1,0c0,0-0.1,0-0.1,0c0,0,0,0,0.1,0c0,0,0.1,0,0.1,0c0,0,0.1,0,0.2,0c0.1,0,0.2,0,0.3,0
		c0.1,0,0.2,0,0.3,0c0.3,0,0.5,0.1,0.7,0.2c0.2,0.1,0.2,0.3,0.2,0.5c0,0.3-0.2,0.5-0.5,0.7l0.6,0.8l0.1,0.1
		C51.6,72,51.7,72.1,51.9,72.2L51.9,72.2C52,72.1,52,72.1,51.9,72.2C52,72.2,51.9,72.2,51.9,72.2z M54.3,69.9
		C54.2,69.9,54.2,69.9,54.3,69.9c-0.1-0.2-0.1-0.2-0.1-0.3c0,0-0.1,0-0.2,0h-0.6c-0.1,0-0.1,0-0.1,0c0,0,0,0.1,0,0.1v2l0,0.1
		c0,0.2,0.1,0.3,0.3,0.3c0,0,0.1,0,0.1,0c0,0,0,0-0.1,0c0,0-0.1,0-0.1,0c0,0-0.1,0-0.2,0l-0.1,0l-0.2,0c-0.1,0-0.1,0-0.1,0
		c-0.1,0-0.1,0-0.1,0c0,0-0.1,0-0.1,0c0,0,0,0,0.1,0c0.1,0,0.2,0,0.2-0.1c0,0,0.1-0.1,0.1-0.2v-2l0-0.1c0,0,0-0.1,0-0.1
		c0,0,0,0-0.1,0h-0.5c-0.1,0-0.2,0-0.2,0.1c-0.1,0-0.1,0.1-0.1,0.3c0,0.1,0,0.1-0.1,0.1c0,0,0,0,0-0.1c0,0,0-0.1,0-0.2
		c0-0.1,0-0.2,0-0.2c0-0.1,0-0.1,0-0.1c0,0,0,0,0.1,0h2.2c0.1,0,0.1,0,0.1,0c0,0,0,0.1,0,0.1c0,0.1,0,0.1,0,0.2
		C54.3,69.8,54.3,69.8,54.3,69.9C54.3,69.9,54.3,69.9,54.3,69.9z M56,72c-0.2,0.2-0.4,0.2-0.7,0.2c-0.1,0-0.2,0-0.3,0
		c-0.1,0-0.2-0.1-0.3-0.1c0,0,0,0,0-0.1c0,0,0-0.1,0-0.1c0,0,0-0.1-0.1-0.2c0-0.1-0.1-0.2-0.1-0.3c0,0,0-0.1,0-0.1c0,0,0,0,0.1,0.1
		c0,0.2,0.2,0.3,0.3,0.4c0.2,0.1,0.3,0.2,0.5,0.2c0.2,0,0.3-0.1,0.5-0.2c0.1-0.1,0.2-0.2,0.2-0.4c0-0.2-0.1-0.3-0.2-0.4
		c-0.1-0.1-0.2-0.1-0.5-0.2c-0.3-0.1-0.5-0.2-0.6-0.3c-0.1-0.1-0.2-0.3-0.2-0.5c0-0.2,0.1-0.4,0.2-0.5c0.2-0.1,0.4-0.2,0.6-0.2
		c0.1,0,0.3,0,0.4,0.1l0.1,0.1c0,0,0,0,0,0c0,0,0,0,0,0l0,0c0,0,0,0,0,0c0,0,0.1,0,0.1,0.1c0,0,0,0.1,0,0.2l0,0.2c0,0,0,0.1,0,0.1
		c0,0,0,0.1,0,0.1c0,0,0,0-0.1-0.1c0-0.1-0.1-0.3-0.3-0.4c-0.2-0.1-0.3-0.1-0.5-0.1c-0.1,0-0.3,0-0.4,0.1c-0.1,0.1-0.1,0.2-0.1,0.3
		c0,0.1,0,0.2,0.1,0.3c0.1,0.1,0.1,0.1,0.2,0.2c0.1,0,0.2,0.1,0.5,0.2c0.5,0.2,0.8,0.4,0.8,0.8C56.3,71.6,56.2,71.8,56,72z M60,69.9
		C60,69.9,60,69.9,60,69.9c-0.1-0.2-0.1-0.2-0.1-0.3c0,0-0.1,0-0.2,0h-0.6c-0.1,0-0.1,0-0.1,0c0,0,0,0.1,0,0.1v2l0,0.1
		c0,0.2,0.1,0.3,0.3,0.3c0,0,0.1,0,0.1,0c0,0,0,0-0.1,0c0,0-0.1,0-0.1,0c0,0-0.1,0-0.2,0l-0.1,0l-0.2,0c-0.1,0-0.1,0-0.1,0
		c-0.1,0-0.1,0-0.1,0c0,0-0.1,0-0.1,0c0,0,0,0,0.1,0c0.1,0,0.2,0,0.2-0.1c0,0,0.1-0.1,0.1-0.2v-2l0-0.1c0,0,0-0.1,0-0.1
		c0,0,0,0-0.1,0h-0.5c-0.1,0-0.2,0-0.2,0.1c-0.1,0-0.1,0.1-0.1,0.3c0,0.1,0,0.1-0.1,0.1s0,0,0-0.1c0,0,0-0.1,0-0.2
		c0-0.1,0-0.2,0-0.2c0-0.1,0-0.1,0-0.1c0,0,0,0,0.1,0h2.2c0.1,0,0.1,0,0.1,0c0,0,0,0.1,0,0.1c0,0.1,0,0.1,0,0.2
		C60,69.8,60.1,69.8,60,69.9C60.1,69.9,60,69.9,60,69.9z M65.7,72.2C65.7,72.2,65.7,72.2,65.7,72.2c-0.1,0-0.3,0-0.5,0
		c-0.2,0-0.3,0-0.4,0c0,0-0.1,0-0.1,0c0,0-0.1,0-0.1,0c0,0,0,0,0.1,0l0.1,0C65,72.1,65,72,65,72c0-0.1,0-0.2-0.1-0.4l-0.1-0.3
		c0-0.1-0.1-0.1-0.1-0.1c0,0-0.1,0-0.1,0h-0.7c-0.1,0-0.2,0-0.2,0c0,0-0.1,0.1-0.1,0.2l-0.1,0.3c-0.1,0.1-0.1,0.2-0.1,0.3
		c0,0.1,0,0.1,0,0.1c0,0,0.1,0.1,0.2,0.1c0,0,0.1,0,0.1,0c0,0,0,0-0.1,0c0,0,0,0-0.1,0l-0.2,0c-0.1,0-0.1,0-0.2,0c0,0-0.1,0-0.1,0
		c-0.1,0-0.1,0-0.1,0c0,0,0,0,0,0c0,0,0,0-0.1,0c-0.1,0-0.1,0-0.2,0c-0.1,0-0.2,0-0.3-0.1c-0.1-0.1-0.2-0.2-0.3-0.3L61.4,71l0,0
		c0-0.1-0.1-0.1-0.2-0.1H61l0,0c0,0,0,0,0,0.1v0.6l0,0.1c0,0.1,0,0.2,0,0.2c0,0,0,0.1,0.1,0.1c0.1,0,0.1,0.1,0.3,0.1
		c0,0,0.1,0,0.1,0c0,0,0,0-0.1,0c0,0-0.1,0-0.1,0c-0.1,0-0.1,0-0.3,0l-0.2,0l-0.1,0c0,0-0.1,0-0.2,0c-0.1,0-0.1,0-0.1,0
		c0,0-0.1,0-0.1,0c0,0,0,0,0.1,0c0.1,0,0.2-0.1,0.2-0.1c0-0.1,0.1-0.2,0.1-0.5V70l0-0.2c0-0.2-0.1-0.3-0.2-0.4l-0.1,0
		c0,0-0.1,0-0.1,0c0,0,0,0,0.1,0c0,0,0.1,0,0.1,0c0,0,0.1,0,0.2,0c0.1,0,0.2,0,0.3,0c0.1,0,0.2,0,0.3,0c0.3,0,0.5,0.1,0.7,0.2
		c0.2,0.1,0.2,0.3,0.2,0.5c0,0.3-0.2,0.5-0.5,0.7l0.6,0.8l0.1,0.1c0.2,0.3,0.3,0.4,0.5,0.4l0.1,0c0,0,0,0,0,0c0,0,0,0,0,0l0.1,0
		c0,0,0.1,0,0.1-0.1c0-0.1,0.1-0.1,0.1-0.2l0.1-0.1l1.1-2.3c0,0,0-0.1,0.1-0.1c0,0,0,0,0.1,0.1l0.9,2.3l0,0.1
		c0.1,0.2,0.1,0.3,0.2,0.3C65.5,72.1,65.6,72.1,65.7,72.2C65.7,72.1,65.8,72.1,65.7,72.2C65.8,72.2,65.7,72.2,65.7,72.2z M67,72.2
		C66.9,72.2,66.9,72.2,67,72.2c-0.1,0-0.2,0-0.3,0l-0.3,0l-0.2,0c0,0-0.1,0-0.1,0c0,0-0.1,0-0.1,0c0,0,0,0,0.1,0
		c0.1,0,0.2-0.1,0.2-0.1c0-0.1,0-0.2,0-0.3v-1.8c0-0.2,0-0.3-0.1-0.3c0-0.1-0.1-0.1-0.2-0.1c0,0-0.1,0-0.1,0c0,0,0,0,0.1,0
		c0,0,0,0,0,0c0.1,0,0.2,0,0.4,0c0.1,0,0.2,0,0.3,0l0.1,0c0,0,0,0,0.1,0c0,0,0.1,0,0.1,0c0,0,0,0-0.1,0.1l-0.1,0
		c-0.1,0-0.2,0.2-0.2,0.5v1.5c0,0.2,0,0.3,0,0.4c0,0.1,0.1,0.1,0.1,0.1C66.8,72.1,66.8,72.1,67,72.2C67,72.1,67,72.1,67,72.2
		C67,72.2,67,72.2,67,72.2z M69.4,72c-0.1,0.1-0.3,0.2-0.6,0.2c0,0-0.1,0-0.2,0l-0.2,0c-0.1,0-0.3,0-0.4,0c-0.2,0-0.3,0-0.4,0
		c0,0-0.1,0-0.1,0c0,0-0.1,0-0.1,0c0,0,0,0,0.1,0c0.1,0,0.2-0.1,0.2-0.1c0-0.1,0-0.1,0-0.3l0-0.1v-1.8c0-0.2-0.1-0.3-0.2-0.3l-0.1,0
		c0,0,0,0,0,0c0,0,0,0,0.1,0c0,0,0.1,0,0.1,0c0.1,0,0.2,0,0.3,0c0.1,0,0.2,0,0.3,0c0.1,0,0.1,0,0.1,0c0,0,0,0,0,0c0,0,0,0-0.1,0.1
		l-0.1,0c-0.1,0-0.2,0.2-0.2,0.4v1.8l0,0.1c0,0.2,0,0.3,0,0.3c0,0,0.1,0,0.3,0c0.3,0,0.5,0,0.7-0.1c0.2-0.1,0.3-0.1,0.4-0.2
		c0,0,0-0.1,0.1-0.1c0,0,0,0,0,0C69.5,71.8,69.5,71.9,69.4,72z M71.5,72c-0.2,0.2-0.4,0.2-0.7,0.2c-0.1,0-0.2,0-0.3,0
		c-0.1,0-0.2-0.1-0.3-0.1c0,0,0,0,0-0.1c0,0,0-0.1,0-0.1c0,0,0-0.1-0.1-0.2c0-0.1-0.1-0.2-0.1-0.3c0,0,0-0.1,0-0.1c0,0,0,0,0.1,0.1
		c0,0.2,0.2,0.3,0.3,0.4c0.2,0.1,0.3,0.2,0.5,0.2c0.2,0,0.3-0.1,0.5-0.2c0.1-0.1,0.2-0.2,0.2-0.4c0-0.2-0.1-0.3-0.2-0.4
		c-0.1-0.1-0.2-0.1-0.5-0.2c-0.3-0.1-0.5-0.2-0.6-0.3c-0.1-0.1-0.2-0.3-0.2-0.5c0-0.2,0.1-0.4,0.2-0.5c0.2-0.1,0.4-0.2,0.6-0.2
		c0.1,0,0.3,0,0.4,0.1l0.1,0.1c0,0,0,0,0,0c0,0,0,0,0,0l0,0c0,0,0,0,0,0c0,0,0.1,0,0.1,0.1c0,0,0,0.1,0,0.2l0,0.2c0,0,0,0.1,0,0.1
		c0,0,0,0.1,0,0.1c0,0,0,0-0.1-0.1c0-0.1-0.1-0.3-0.3-0.4c-0.2-0.1-0.3-0.1-0.5-0.1c-0.1,0-0.3,0-0.4,0.1c-0.1,0.1-0.1,0.2-0.1,0.3
		c0,0.1,0,0.2,0.1,0.3c0.1,0.1,0.1,0.1,0.2,0.2c0.1,0,0.2,0.1,0.5,0.2c0.5,0.2,0.8,0.4,0.8,0.8C71.8,71.6,71.7,71.8,71.5,72z
		 M76.5,72.2c-0.1,0-0.2,0-0.3,0c-0.1,0-0.3,0-0.4-0.1c-0.1-0.1-0.3-0.2-0.5-0.3c-0.3,0.3-0.6,0.4-1,0.4c-0.3,0-0.6-0.1-0.8-0.3
		c-0.2-0.2-0.3-0.4-0.3-0.7c0-0.2,0.1-0.5,0.3-0.6c0.1-0.1,0.2-0.2,0.4-0.2c-0.1-0.2-0.2-0.3-0.2-0.5c0-0.2,0.1-0.3,0.2-0.4
		c0.1-0.1,0.3-0.1,0.5-0.1c0.1,0,0.2,0,0.3,0.1l0.1,0l0,0c0,0,0,0,0,0c0,0,0,0,0,0c0,0,0.1,0,0.1,0.1l0,0.1l0,0.2c0,0,0,0.1,0,0.1
		c0,0,0,0,0,0c0,0,0,0,0,0c0-0.1-0.1-0.2-0.2-0.3c-0.1-0.1-0.2-0.1-0.3-0.1c-0.1,0-0.2,0-0.2,0.1c-0.1,0.1-0.1,0.1-0.1,0.2
		c0,0.1,0,0.2,0.1,0.3c0.1,0.1,0.2,0.2,0.3,0.4l0.5,0.5c0.1,0.1,0.3,0.3,0.6,0.5c0.1-0.1,0.1-0.3,0.1-0.4c0-0.1,0-0.2-0.1-0.3
		c0-0.1-0.1-0.1-0.2-0.1l-0.1,0c0,0-0.1,0-0.1-0.1c0,0,0,0,0,0c0,0,0,0,0.1,0c0,0,0.2,0,0.4,0c0.1,0,0.1,0,0.2,0c0,0,0.1,0,0.1,0
		c0,0,0,0,0,0c0,0,0,0-0.1,0.1c0,0-0.1,0-0.1,0.1c0,0,0,0.1,0,0.2c0,0.2-0.1,0.4-0.2,0.6C75.9,71.9,76.2,72.1,76.5,72.2
		c0-0.1,0-0.1,0-0.1c0,0,0.1,0,0.1,0c0,0,0,0,0,0C76.6,72.1,76.6,72.1,76.5,72.2z M79.8,72.2c-0.1,0-0.1,0-0.2,0
		c-0.1,0-0.2,0-0.3-0.1c-0.1-0.1-0.2-0.2-0.3-0.3L78.4,71l0,0c0-0.1-0.1-0.1-0.2-0.1H78l0,0c0,0,0,0,0,0.1v0.6l0,0.1
		c0,0.1,0,0.2,0,0.2c0,0,0,0.1,0.1,0.1c0.1,0,0.1,0.1,0.3,0.1c0,0,0.1,0,0.1,0c0,0,0,0-0.1,0c0,0-0.1,0-0.1,0c-0.1,0-0.1,0-0.3,0
		l-0.2,0l-0.1,0c0,0-0.1,0-0.2,0c-0.1,0-0.1,0-0.1,0c0,0-0.1,0-0.1,0c0,0,0,0,0.1,0c0.1,0,0.2-0.1,0.2-0.1c0-0.1,0.1-0.2,0.1-0.5V70
		l0-0.2c0-0.2-0.1-0.3-0.2-0.4l-0.1,0c0,0-0.1,0-0.1,0c0,0,0,0,0.1,0c0,0,0.1,0,0.1,0c0,0,0.1,0,0.2,0c0.1,0,0.2,0,0.3,0
		c0.1,0,0.2,0,0.3,0c0.3,0,0.5,0.1,0.7,0.2c0.2,0.1,0.2,0.3,0.2,0.5c0,0.3-0.2,0.5-0.5,0.7l0.6,0.8l0.1,0.1
		C79.5,72,79.6,72.1,79.8,72.2L79.8,72.2C79.9,72.1,79.9,72.1,79.8,72.2C79.9,72.2,79.8,72.2,79.8,72.2z M82.1,72
		c-0.1,0.1-0.3,0.2-0.5,0.2c0,0-0.1,0-0.2,0c-0.3,0-0.5,0-0.6,0c-0.2,0-0.4,0-0.5,0c-0.1,0-0.1,0-0.1,0c0,0-0.1,0-0.1,0
		c0,0,0,0,0.1,0l0.1,0c0.1,0,0.1-0.1,0.1-0.3l0-0.1v-1.7c0-0.2,0-0.3-0.1-0.4c0-0.1-0.1-0.1-0.3-0.1c0,0-0.1,0-0.1,0
		c0,0,0-0.1,0.1-0.1c0,0,0.1,0,0.1,0c0.2,0,0.4,0,0.7,0c0.2,0,0.3,0,0.4,0l0.3,0c0.1,0,0.1,0,0.1,0c0,0,0.1,0,0.1,0
		c0,0,0.1,0,0.1,0.1c0,0,0,0,0,0c0,0,0,0.1,0,0.2l0,0.1c0,0.1,0,0.1,0,0.1c0,0,0,0,0,0c0,0,0,0,0-0.1v-0.1c0,0,0-0.1,0-0.1
		c0-0.1-0.1-0.1-0.2-0.1c-0.1,0-0.2,0-0.4,0h-0.3c-0.1,0-0.1,0-0.2,0c0,0,0,0.1,0,0.1v0.8c0,0.1,0,0.1,0,0.1c0,0,0,0,0.1,0h0.3
		c0.1,0,0.3,0,0.3,0c0.1,0,0.1,0,0.1-0.1c0,0,0-0.1,0.1-0.2c0,0,0-0.1,0.1,0c0,0,0,0,0,0.1c0,0,0,0,0,0c0,0.1,0,0.3,0,0.4
		c0,0.1,0,0.2,0,0.2c0,0,0,0,0,0.1c0,0,0,0.1,0,0.1c0,0,0,0-0.1,0l0-0.1c0-0.1,0-0.2-0.1-0.2c0,0-0.1,0-0.2,0h-0.5
		c-0.1,0-0.1,0-0.1,0c0,0,0,0,0,0.1l0,0.1v0.8c0,0.1,0,0.2,0.1,0.2c0,0,0.1,0,0.3,0c0.5,0,0.9-0.1,1-0.4c0,0,0,0,0,0c0,0,0,0,0,0.1
		C82.2,71.8,82.2,71.9,82.1,72z M84.2,72c-0.2,0.2-0.4,0.2-0.7,0.2c-0.1,0-0.2,0-0.3,0c-0.1,0-0.2-0.1-0.3-0.1c0,0,0,0,0-0.1
		c0,0,0-0.1,0-0.1c0,0,0-0.1-0.1-0.2c0-0.1-0.1-0.2-0.1-0.3c0,0,0-0.1,0-0.1c0,0,0,0,0.1,0.1c0,0.2,0.2,0.3,0.3,0.4
		c0.2,0.1,0.3,0.2,0.5,0.2c0.2,0,0.3-0.1,0.5-0.2c0.1-0.1,0.2-0.2,0.2-0.4c0-0.2-0.1-0.3-0.2-0.4c-0.1-0.1-0.2-0.1-0.5-0.2
		c-0.3-0.1-0.5-0.2-0.6-0.3c-0.1-0.1-0.2-0.3-0.2-0.5c0-0.2,0.1-0.4,0.2-0.5c0.2-0.1,0.4-0.2,0.6-0.2c0.1,0,0.3,0,0.4,0.1l0.1,0.1
		c0,0,0,0,0,0c0,0,0,0,0,0l0,0c0,0,0,0,0,0c0,0,0.1,0,0.1,0.1c0,0,0,0.1,0,0.2l0,0.2c0,0,0,0.1,0,0.1c0,0,0,0.1,0,0.1
		c0,0,0,0-0.1-0.1c0-0.1-0.1-0.3-0.3-0.4c-0.2-0.1-0.3-0.1-0.5-0.1c-0.1,0-0.3,0-0.4,0.1c-0.1,0.1-0.1,0.2-0.1,0.3
		c0,0.1,0,0.2,0.1,0.3c0.1,0.1,0.1,0.1,0.2,0.2c0.1,0,0.2,0.1,0.5,0.2c0.5,0.2,0.8,0.4,0.8,0.8C84.4,71.6,84.4,71.8,84.2,72z
		 M85.8,72.2C85.8,72.2,85.8,72.2,85.8,72.2c-0.1,0-0.2,0-0.3,0l-0.3,0l-0.2,0c0,0-0.1,0-0.1,0c0,0-0.1,0-0.1,0c0,0,0,0,0.1,0
		c0.1,0,0.2-0.1,0.2-0.1c0-0.1,0-0.2,0-0.3v-1.8c0-0.2,0-0.3-0.1-0.3c0-0.1-0.1-0.1-0.2-0.1c0,0-0.1,0-0.1,0c0,0,0,0,0.1,0
		c0,0,0,0,0,0c0.1,0,0.2,0,0.4,0c0.1,0,0.2,0,0.3,0l0.1,0c0,0,0,0,0.1,0c0,0,0.1,0,0.1,0c0,0,0,0-0.1,0.1l-0.1,0
		c-0.1,0-0.2,0.2-0.2,0.5v1.5c0,0.2,0,0.3,0,0.4c0,0.1,0.1,0.1,0.1,0.1C85.6,72.1,85.7,72.1,85.8,72.2
		C85.9,72.1,85.9,72.1,85.8,72.2C85.9,72.2,85.9,72.2,85.8,72.2z M83.2,63.8c-4.6,0.8-7.8-1.4-7.8-1.4c-0.5-0.3-1.2-0.8-2-1.2
		c-0.1,0.1-1.1,0.5-2.4,1c3,1,6.2,1.5,6.2,1.5c-1.9,0.4-4.7-0.4-6.9-1.2c-2.2,0.8-5.2,1.7-7.1,1.3c0,0,3.4-0.5,6.4-1.5
		c-1.3-0.5-2.3-1-2.5-1.1c-0.8,0.5-1.6,1-2.1,1.3c0,0-3.2,2.3-7.8,1.4c0,0-3.7-0.8-2.5-3.9c0,0,1-2.8,5.9-2.2c0,0,3,0.4,5.9,2.4
		c0,0,0.5,0.3,1.1-0.1l2.3-1.2c-0.7-0.4-1.2-0.7-1.2-0.7l1.6,0.4l0.1,0.1l0.1-0.1l1.6-0.4c0,0-0.5,0.3-1.2,0.7L73,60
		c0.7,0.4,1.1,0.1,1.1,0.1c2.9-2,5.9-2.4,5.9-2.4c4.9-0.7,5.9,2.2,5.9,2.2C86.9,63,83.2,63.8,83.2,63.8z M88.8,71.5
		c-0.1,0.2-0.3,0.4-0.5,0.5c-0.3,0.2-0.5,0.2-0.8,0.2c0,0-0.1,0-0.2,0c-0.2,0-0.3,0-0.5,0c-0.1,0-0.3,0-0.4,0c0,0-0.1,0-0.1,0
		c0,0-0.1,0-0.1,0c0,0,0,0,0.1,0c0.1,0,0.2-0.1,0.2-0.1c0,0,0-0.1,0-0.3v-1.8c0-0.1,0-0.2-0.1-0.3c0-0.1-0.1-0.1-0.2-0.1
		c0,0-0.1,0-0.1,0c0,0,0,0,0.1,0l0.2,0c0,0,0.1,0,0.1,0c0.1,0,0.2,0,0.3,0l0.2,0c0.1,0,0.2,0,0.3,0c0.6,0,1,0.1,1.3,0.4
		c0.3,0.3,0.4,0.6,0.4,1C89,71,89,71.3,88.8,71.5z M91.2,72c-0.1,0.1-0.3,0.2-0.5,0.2c0,0-0.1,0-0.2,0c-0.3,0-0.5,0-0.6,0
		c-0.2,0-0.4,0-0.5,0c-0.1,0-0.1,0-0.1,0c0,0-0.1,0-0.1,0c0,0,0,0,0.1,0l0.1,0c0.1,0,0.1-0.1,0.1-0.3l0-0.1v-1.7
		c0-0.2,0-0.3-0.1-0.4c0-0.1-0.1-0.1-0.3-0.1c0,0-0.1,0-0.1,0c0,0,0-0.1,0.1-0.1c0,0,0.1,0,0.1,0c0.2,0,0.4,0,0.7,0
		c0.2,0,0.3,0,0.4,0l0.3,0c0.1,0,0.1,0,0.1,0c0,0,0.1,0,0.1,0c0,0,0.1,0,0.1,0.1c0,0,0,0,0,0c0,0,0,0.1,0,0.2l0,0.1
		c0,0.1,0,0.1,0,0.1c0,0,0,0,0,0c0,0,0,0,0-0.1v-0.1c0,0,0-0.1,0-0.1c0-0.1-0.1-0.1-0.2-0.1c-0.1,0-0.2,0-0.4,0h-0.3
		c-0.1,0-0.1,0-0.2,0c0,0,0,0.1,0,0.1v0.8c0,0.1,0,0.1,0,0.1c0,0,0,0,0.1,0h0.3c0.1,0,0.3,0,0.3,0c0.1,0,0.1,0,0.1-0.1
		c0,0,0-0.1,0.1-0.2c0,0,0-0.1,0.1,0c0,0,0,0,0,0.1c0,0,0,0,0,0c0,0.1,0,0.3,0,0.4c0,0.1,0,0.2,0,0.2c0,0,0,0,0,0.1c0,0,0,0.1,0,0.1
		c0,0,0,0-0.1,0l0-0.1c0-0.1,0-0.2-0.1-0.2c0,0-0.1,0-0.2,0H90c-0.1,0-0.1,0-0.1,0c0,0,0,0,0,0.1l0,0.1v0.8c0,0.1,0,0.2,0.1,0.2
		c0,0,0.1,0,0.3,0c0.5,0,0.9-0.1,1-0.4c0,0,0,0,0,0c0,0,0,0,0,0.1C91.4,71.8,91.3,71.9,91.2,72z M94.4,69.4c-0.1,0-0.1,0.1-0.2,0.1
		c0,0,0,0.1,0,0.3V70l0,0.1v1.7c0,0.2,0,0.2,0,0.3c0,0,0,0-0.1,0c0,0,0,0,0,0l0-0.1l-1.7-2l0,0c0,0,0,0,0,0c0,0,0,0,0,0.1v1.4l0,0.1
		l0,0.1c0,0.1,0,0.2,0.1,0.2c0,0,0.1,0.1,0.2,0.1c0,0,0.1,0,0.1,0.1c0,0,0,0,0,0c0,0,0,0-0.1,0c0,0-0.1,0-0.2,0l-0.2,0l-0.1,0
		c-0.1,0-0.1,0-0.2,0c0,0-0.1,0-0.1,0c0,0-0.1,0-0.1,0c0,0,0,0,0.1,0c0.1,0,0.2-0.1,0.2-0.2c0-0.1,0.1-0.2,0.1-0.3v-1.4
		c0-0.2,0-0.4-0.1-0.6c-0.1-0.1-0.2-0.2-0.3-0.2c0,0-0.1,0-0.1,0c0,0,0,0,0,0c0,0,0,0,0,0l0.1,0l0.1,0l0,0c0,0,0.1,0,0.1,0
		c0,0,0.1,0,0.1,0.1l1.9,2.1c0,0,0,0.1,0.1,0c0,0,0,0,0,0v-1l0-0.3l0-0.5c0-0.1,0-0.2-0.1-0.2c-0.1,0-0.2-0.1-0.3-0.1
		c0,0-0.1,0-0.1-0.1c0,0,0,0,0.1,0c0,0,0,0,0.1,0c0.1,0,0.2,0,0.4,0c0.1,0,0.2,0,0.2,0C94.3,69.4,94.4,69.4,94.4,69.4
		C94.4,69.4,94.4,69.4,94.4,69.4C94.4,69.4,94.4,69.4,94.4,69.4z M97.3,71.5L97.3,71.5l-0.1,0.3l0,0c0,0,0,0.1-0.1,0.1
		c-0.3,0.2-0.7,0.3-1,0.3c-0.4,0-0.8-0.1-1.1-0.4c-0.3-0.3-0.4-0.6-0.4-1c0-0.4,0.1-0.8,0.4-1.1c0.3-0.3,0.6-0.4,1-0.4
		c0.3,0,0.6,0.1,0.8,0.2l0.1,0l0,0l0,0c0,0,0,0,0,0c0,0,0.1,0,0.1,0c0,0,0,0,0,0.1l0.1,0.5l0,0.1l0,0c0,0,0,0,0,0c0,0,0,0-0.1-0.1
		c-0.3-0.4-0.6-0.7-1-0.7c-0.3,0-0.6,0.1-0.8,0.3C95.1,70,95,70.3,95,70.7c0,0.4,0.1,0.8,0.3,1c0.2,0.3,0.5,0.4,0.9,0.4
		c0.2,0,0.4-0.1,0.6-0.2c0.2-0.1,0.3-0.2,0.4-0.4C97.2,71.5,97.3,71.4,97.3,71.5C97.3,71.4,97.3,71.4,97.3,71.5L97.3,71.5z M99.6,72
		c-0.1,0.1-0.3,0.2-0.5,0.2c0,0-0.1,0-0.2,0c-0.3,0-0.5,0-0.6,0c-0.2,0-0.4,0-0.5,0c-0.1,0-0.1,0-0.1,0c0,0-0.1,0-0.1,0
		c0,0,0,0,0.1,0l0.1,0c0.1,0,0.1-0.1,0.1-0.3l0-0.1v-1.7c0-0.2,0-0.3-0.1-0.4c0-0.1-0.1-0.1-0.3-0.1c0,0-0.1,0-0.1,0
		c0,0,0-0.1,0.1-0.1c0,0,0.1,0,0.1,0c0.2,0,0.4,0,0.7,0c0.2,0,0.3,0,0.4,0l0.3,0c0.1,0,0.1,0,0.1,0c0,0,0.1,0,0.1,0
		c0,0,0.1,0,0.1,0.1c0,0,0,0,0,0c0,0,0,0.1,0,0.2l0,0.1c0,0.1,0,0.1,0,0.1c0,0,0,0,0,0c0,0,0,0,0-0.1v-0.1c0,0,0-0.1,0-0.1
		c0-0.1-0.1-0.1-0.2-0.1c-0.1,0-0.2,0-0.4,0h-0.3c-0.1,0-0.1,0-0.2,0c0,0,0,0.1,0,0.1v0.8c0,0.1,0,0.1,0,0.1c0,0,0,0,0.1,0h0.3
		c0.1,0,0.3,0,0.3,0c0.1,0,0.1,0,0.1-0.1c0,0,0-0.1,0.1-0.2c0,0,0-0.1,0.1,0c0,0,0,0,0,0.1c0,0,0,0,0,0c0,0.1,0,0.3,0,0.4
		c0,0.1,0,0.2,0,0.2c0,0,0,0,0,0.1c0,0,0,0.1,0,0.1c0,0,0,0-0.1,0l0-0.1c0-0.1,0-0.2-0.1-0.2c0,0-0.1,0-0.2,0h-0.5
		c-0.1,0-0.1,0-0.1,0c0,0,0,0,0,0.1l0,0.1v0.8c0,0.1,0,0.2,0.1,0.2s0.1,0,0.3,0c0.5,0,0.9-0.1,1-0.4c0,0,0,0,0,0c0,0,0,0,0,0.1
		C99.7,71.8,99.7,71.9,99.6,72z M101.6,72c-0.2,0.2-0.4,0.2-0.7,0.2c-0.1,0-0.2,0-0.3,0c-0.1,0-0.2-0.1-0.3-0.1c0,0,0,0,0-0.1
		c0,0,0-0.1,0-0.1c0,0,0-0.1-0.1-0.2c0-0.1-0.1-0.2-0.1-0.3c0,0,0-0.1,0-0.1c0,0,0,0,0.1,0.1c0,0.2,0.2,0.3,0.3,0.4
		c0.2,0.1,0.3,0.2,0.5,0.2c0.2,0,0.3-0.1,0.5-0.2c0.1-0.1,0.2-0.2,0.2-0.4c0-0.2-0.1-0.3-0.2-0.4c-0.1-0.1-0.2-0.1-0.5-0.2
		c-0.3-0.1-0.5-0.2-0.6-0.3c-0.1-0.1-0.2-0.3-0.2-0.5c0-0.2,0.1-0.4,0.2-0.5c0.2-0.1,0.4-0.2,0.6-0.2c0.1,0,0.3,0,0.4,0.1l0.1,0.1
		c0,0,0,0,0,0c0,0,0,0,0,0l0,0c0,0,0,0,0,0c0,0,0.1,0,0.1,0.1c0,0,0,0.1,0,0.2l0,0.2c0,0,0,0.1,0,0.1c0,0,0,0.1,0,0.1
		c0,0,0,0-0.1-0.1c0-0.1-0.1-0.3-0.3-0.4c-0.2-0.1-0.3-0.1-0.5-0.1c-0.1,0-0.3,0-0.4,0.1c-0.1,0.1-0.1,0.2-0.1,0.3
		c0,0.1,0,0.2,0.1,0.3c0.1,0.1,0.1,0.1,0.2,0.2c0.1,0,0.2,0.1,0.5,0.2c0.5,0.2,0.8,0.4,0.8,0.8C101.9,71.6,101.8,71.8,101.6,72z
		 M108.8,62c0,0-0.4-0.4-0.9-0.7H86.5v-0.7h21.4c0.5-0.3,0.9-0.7,0.9-0.7c0.4,0.7,1.5,1.1,1.5,1.1S109.2,61.3,108.8,62z M113.9,31.5
		c-0.3,0.1-0.5,0.2-0.6,0.4c-0.1,0.2-0.2,0.5-0.2,1v0.9l0,0.5V41c0,0.6,0,1,0,1.1c0,0.1-0.1,0.2-0.2,0.2c-0.1,0-0.1,0-0.2-0.1
		l-0.2-0.2l-6.7-7.7l-0.1-0.1c0,0-0.1,0-0.1,0c-0.1,0-0.2,0.1-0.2,0.4V40l0,0.3l0,0.6c0,0.4,0.1,0.6,0.3,0.7
		c0.1,0.1,0.4,0.2,0.8,0.3c0.2,0,0.3,0.1,0.3,0.2c0,0.1-0.1,0.2-0.2,0.2c-0.1,0-0.2,0-0.2,0c-0.1,0-0.3,0-0.7,0l-0.8,0l-0.4,0
		c-0.2,0-0.4,0-0.6,0c-0.1,0-0.2,0-0.3,0c-0.1,0-0.2,0-0.2-0.1c0-0.1,0.1-0.1,0.2-0.2c0.4-0.2,0.7-0.4,0.9-0.6
		c0.2-0.3,0.2-0.7,0.2-1.3v-5.4c0-0.9-0.1-1.6-0.4-2.2c-0.3-0.5-0.7-0.8-1.3-0.9c-0.1,0-0.2-0.1-0.2-0.2c0-0.1,0.1-0.1,0.2-0.1
		c0,0,0.1,0,0.1,0l0.3,0l0.5,0l0.1,0c0.1,0,0.2,0,0.3,0c0.1,0,0.3,0.1,0.4,0.2l7.4,8.3c0.1,0.1,0.2,0.2,0.2,0.2
		c0.1,0,0.1-0.1,0.1-0.2v-4l0-1.1l-0.1-1.8c-0.1-0.5-0.2-0.8-0.4-1c-0.2-0.2-0.6-0.3-1.1-0.4c-0.2,0-0.2-0.1-0.2-0.2
		c0-0.1,0.1-0.1,0.2-0.1c0.1,0,0.2,0,0.3,0c0.4,0,0.9,0.1,1.5,0.1c0.3,0,0.6,0,0.8,0c0.2,0,0.3,0,0.4,0c0.1,0,0.2,0.1,0.2,0.2
		C114,31.4,114,31.5,113.9,31.5z M124.1,33.3c-0.1,0-0.2-0.1-0.2-0.2c-0.1-0.4-0.2-0.6-0.3-0.7c-0.2-0.1-0.5-0.2-0.9-0.2h-2.2
		c-0.2,0-0.4,0-0.4,0.1c-0.1,0.1-0.1,0.2-0.1,0.5v7.8l0,0.3c0,0.6,0.4,1,1,1.1c0.2,0,0.3,0.1,0.3,0.2c0,0.1-0.1,0.2-0.2,0.2
		c-0.1,0-0.2,0-0.4,0c-0.1,0-0.3,0-0.7,0l-0.6,0l-0.6,0c-0.2,0-0.4,0-0.6,0c-0.3,0-0.5,0-0.5,0c-0.2,0-0.2-0.1-0.2-0.2
		c0-0.1,0.1-0.1,0.3-0.2c0.4-0.1,0.7-0.2,0.8-0.3c0.1-0.2,0.2-0.5,0.2-0.9v-7.9l0-0.2c0-0.2,0-0.3-0.1-0.4c-0.1-0.1-0.2-0.1-0.4-0.1
		H116c-0.4,0-0.7,0.1-0.9,0.3c-0.2,0.2-0.3,0.5-0.5,1c0,0.2-0.1,0.3-0.2,0.3c-0.1,0-0.1-0.1-0.1-0.2c0-0.1,0-0.3,0.1-0.6
		c0.1-0.4,0.1-0.7,0.1-0.9c0-0.2,0-0.4,0.1-0.5c0.1-0.1,0.2-0.1,0.4-0.1h8.6c0.3,0,0.5,0,0.5,0.1c0.1,0.1,0.1,0.3,0.1,0.6
		c0,0.3,0,0.5,0,0.7c0,0.2,0,0.3,0,0.4C124.3,33.2,124.2,33.3,124.1,33.3z"/>
	<path class="st0" d="M67.7,60.6c0.7,0.5,1.6,0.9,2.6,1.3c0.9-0.4,1.8-0.8,2.4-1.2c-0.9-0.6-1.8-1.1-2.5-1.6
		C69.5,59.6,68.6,60.1,67.7,60.6z"/>
	<path class="st0" d="M70.4,92.8c-1.2,0-2.3-0.1-3.3-0.3L9,77c-0.3-0.1-7.1-2.7-7.4-9.8l0-40.2c0-0.1,0.2-7.1,7.4-9.5L67.8,1.8
		c0.1,0,1.1-0.3,2.6-0.3c1.2,0,2.4,0.2,3.6,0.5l58.9,15.7c0.3,0.1,6.6,2.9,6.5,9.3v40.4c0,0,0.3,7-7.4,9.7L74.4,92.4
		C74.3,92.4,72.6,92.8,70.4,92.8z M70.4,3c-1.3,0-2.2,0.2-2.3,0.2L9.4,18.9C3.2,21,3,26.9,3,27v40.1c0.3,6.2,6.4,8.5,6.4,8.5
		l57.9,15.5c0.9,0.2,1.9,0.3,3,0.3c2.1,0,3.6-0.4,3.6-0.4l57.6-15.3c6.6-2.3,6.4-8,6.4-8.2l0-40.5c0.1-5.2-5.1-7.7-5.6-7.9L73.6,3.4
		C72.6,3.2,71.5,3,70.4,3z"/>
	<path class="st0" d="M70.2,90.1c-1,0-1.8-0.1-2.5-0.3L10,74.5c-0.1,0-5.5-2-5.6-7.5V27.1c0-0.2-0.2-5,6.8-7.3L68.3,4.6
		c0.1,0,1.1-0.2,2.5-0.2c0.8,0,1.5,0.1,2.1,0.2l58.2,15.5c0.1,0,5.4,1.7,5.4,7.1l-0.1,39.7c0,0,0.2,5.3-5.2,7.3L73.8,89.7
		C73.7,89.7,72,90.1,70.2,90.1z M70.8,5.4c-1.2,0-2.2,0.2-2.2,0.2l-57,15.1c-6.2,2.1-6,6.2-6,6.3l0,39.9c0.1,4.7,4.8,6.4,4.8,6.4
		l57.8,15.3c0.6,0.2,1.3,0.3,2.2,0.3c1.7,0,3.2-0.4,3.3-0.4l57.4-15.4c4.6-1.7,4.5-6.2,4.5-6.3l0.1-39.7c0-4.6-4.4-6-4.6-6.1
		L72.6,5.7C72.1,5.5,71.5,5.4,70.8,5.4z"/>
</g>
</svg>
